<svg width="107" height="36" viewBox="0 0 107 36" fill="none" xmlns="http://www.w3.org/2000/svg">
<g filter="url(#filter0_d_3_2)">
<path d="M7.608 18.344C7.20267 18.344 7 18.024 7 17.384V16.968C7 16.84 7.02133 16.712 7.064 16.584C7.10667 16.4773 7.20267 16.36 7.352 16.232C7.608 15.9973 7.864 15.7627 8.12 15.528C8.376 15.2933 8.62133 15.048 8.856 14.792C8.89867 14.7493 8.94133 14.728 8.984 14.728C9.02667 14.7067 9.05867 14.6853 9.08 14.664C9.12267 14.6213 9.18667 14.5253 9.272 14.376C9.35733 14.2267 9.45333 14.1093 9.56 14.024C9.66667 13.9387 9.76267 13.8747 9.848 13.832C9.93333 13.768 9.98667 13.6613 10.008 13.512C10.2427 13.2347 10.4773 12.9573 10.712 12.68C10.9467 12.3813 11.1707 12.0827 11.384 11.784C11.5547 11.6987 11.7253 11.4747 11.896 11.112C12.0667 10.7493 12.2267 10.4827 12.376 10.312C12.4827 10.312 12.5467 10.248 12.568 10.12C12.5893 9.992 12.6213 9.88534 12.664 9.8C12.9627 9.288 13.24 8.78667 13.496 8.296C13.752 7.80534 13.9547 7.28267 14.104 6.728C14.1467 6.62134 14.1893 6.536 14.232 6.472C14.296 6.38667 14.3387 6.30134 14.36 6.216V6.088C14.36 6.00267 14.3387 5.91734 14.296 5.832C14.2747 5.72534 14.2747 5.61867 14.296 5.512C14.3173 5.40534 14.3387 5.24534 14.36 5.032C14.3813 4.79734 14.4133 4.648 14.456 4.584C14.52 4.47734 14.5733 4.44534 14.616 4.488C14.68 4.53067 14.7227 4.52 14.744 4.456C14.7653 4.41334 14.776 4.34934 14.776 4.264C14.7973 4.15734 14.808 4.08267 14.808 4.04C14.808 4.01867 14.7973 4.008 14.776 4.008C14.7547 4.008 14.6907 4.05067 14.584 4.136C14.4987 4.2 14.456 4.21067 14.456 4.168L14.424 3.848C14.3387 3.72 14.2747 3.63467 14.232 3.592C14.2107 3.528 14.2107 3.42134 14.232 3.272V3.176C14.232 3.00534 14.1147 2.94134 13.88 2.984C13.56 2.792 13.2827 2.696 13.048 2.696C12.8347 2.696 12.632 2.73867 12.44 2.824C12.248 2.888 12.056 2.92 11.864 2.92C11.6933 2.92 11.608 2.84534 11.608 2.696C11.608 2.568 11.6933 2.46134 11.864 2.376C12.056 2.26934 12.2587 2.19467 12.472 2.152C12.6853 2.10934 12.8453 2.088 12.952 2.088C13.2293 2.088 13.5173 2.13067 13.816 2.216C14.1147 2.30134 14.3707 2.42934 14.584 2.6C14.9467 2.87734 15.192 3.22934 15.32 3.656C15.4693 4.06134 15.544 4.47734 15.544 4.904C15.544 5.288 15.512 5.672 15.448 6.056C15.384 6.41867 15.2987 6.77067 15.192 7.112C15.1493 7.28267 15.0853 7.45334 15 7.624C14.9147 7.79467 14.84 7.96534 14.776 8.136C14.7547 8.2 14.7333 8.28534 14.712 8.392C14.6907 8.49867 14.68 8.60534 14.68 8.712C14.68 8.88267 14.7227 8.968 14.808 8.968C14.872 8.968 14.9787 8.89334 15.128 8.744C15.8533 8.01867 16.568 7.29334 17.272 6.568C17.9973 5.84267 18.744 5.14934 19.512 4.488C19.6827 4.33867 19.8533 4.2 20.024 4.072C20.1947 3.944 20.3547 3.80534 20.504 3.656C20.5467 3.592 20.6107 3.528 20.696 3.464C20.7813 3.4 20.8453 3.35734 20.888 3.336C21.144 3.16534 21.3787 2.99467 21.592 2.824C21.8053 2.632 22.0293 2.46134 22.264 2.312C22.584 2.12 22.904 1.93867 23.224 1.768C23.5653 1.576 23.9067 1.416 24.248 1.288H24.28C24.344 1.26667 24.3867 1.26667 24.408 1.288C24.4507 1.30934 24.4933 1.32 24.536 1.32C24.6 1.27733 24.6427 1.23467 24.664 1.192C24.7067 1.14934 24.7707 1.11734 24.856 1.096C25.1547 1.032 25.4533 1 25.752 1C26.1787 1 26.584 1.064 26.968 1.192C27.352 1.32 27.672 1.53334 27.928 1.832C27.9707 1.93867 28.0027 2.03467 28.024 2.12C28.0453 2.184 28.12 2.23733 28.248 2.28C28.3973 2.55734 28.4933 2.84534 28.536 3.144C28.6 3.42134 28.632 3.70934 28.632 4.008C28.632 4.41334 28.6 4.808 28.536 5.192C28.5147 5.36267 28.4613 5.544 28.376 5.736C28.312 5.90667 28.2907 6.088 28.312 6.28L28.28 6.344C28.152 6.51467 28.1093 6.68534 28.152 6.856L28.088 7.08C27.96 7.144 27.896 7.24 27.896 7.368C27.896 7.47467 27.896 7.592 27.896 7.72H27.864C27.5867 8.57334 27.256 9.40534 26.872 10.216C26.488 11.0053 26.0827 11.784 25.656 12.552C25.656 12.5733 25.6133 12.6693 25.528 12.84C25.4427 13.0107 25.368 13.1813 25.304 13.352C25.2613 13.5227 25.2827 13.608 25.368 13.608C25.496 13.608 25.624 13.544 25.752 13.416C25.88 13.2667 25.9867 13.1493 26.072 13.064C26.2427 12.8933 26.3813 12.712 26.488 12.52C26.616 12.3067 26.7547 12.1253 26.904 11.976C26.9467 11.912 27 11.8587 27.064 11.816C27.128 11.752 27.192 11.6987 27.256 11.656C27.3627 11.5707 27.448 11.464 27.512 11.336C27.576 11.208 27.6507 11.1013 27.736 11.016L28.44 10.216C28.6107 10.216 28.7173 10.152 28.76 10.024C28.8027 9.896 28.8667 9.77867 28.952 9.672C29.0373 9.544 29.2293 9.32 29.528 9C29.8267 8.68 30.0507 8.46667 30.2 8.36C30.4347 8.14667 30.7013 8.04 31 8.04C31.448 8.04 31.8213 8.30667 32.12 8.84C32.1627 8.92534 32.2373 9.128 32.344 9.448C32.472 9.768 32.536 9.96 32.536 10.024C32.536 10.088 32.5147 10.1627 32.472 10.248C32.4507 10.312 32.4507 10.3653 32.472 10.408C32.5147 10.4507 32.5467 10.4613 32.568 10.44C32.6107 10.4187 32.6427 10.4613 32.664 10.568C32.728 10.696 32.7707 10.856 32.792 11.048C32.8347 11.24 32.8667 11.4107 32.888 11.56C32.9093 11.6667 32.9093 11.784 32.888 11.912C32.888 12.0187 32.8987 12.1253 32.92 12.232C32.9627 12.296 32.9947 12.3493 33.016 12.392C33.0373 12.4347 33.0587 12.4987 33.08 12.584C33.1653 12.9253 33.2613 13.2667 33.368 13.608C33.4747 13.928 33.592 14.248 33.72 14.568L33.752 14.6C33.752 14.856 33.848 15.0053 34.04 15.048C34.424 15.56 34.9147 15.816 35.512 15.816C35.5973 15.816 35.672 15.8053 35.736 15.784C35.8213 15.7627 35.9067 15.7413 35.992 15.72C36.12 15.72 36.2267 15.752 36.312 15.816C36.4187 15.88 36.3867 15.9653 36.216 16.072C35.896 16.2853 35.5653 16.392 35.224 16.392C34.6053 16.392 34.0827 16.232 33.656 15.912C33.2507 15.5707 32.9093 15.1547 32.632 14.664C32.376 14.1733 32.152 13.672 31.96 13.16L32.056 13.064C32.2267 13 32.312 12.9467 32.312 12.904C32.312 12.8613 32.2587 12.8293 32.152 12.808C32.0667 12.7653 31.9707 12.7547 31.864 12.776C31.6507 12.4133 31.4907 12.0293 31.384 11.624C31.2987 11.1973 31.16 10.792 30.968 10.408C30.712 9.87467 30.424 9.608 30.104 9.608C29.8907 9.608 29.688 9.71467 29.496 9.928C29.304 10.12 29.0907 10.3333 28.856 10.568L27.96 11.56C27.7467 11.624 27.6293 11.7733 27.608 12.008C27.224 12.4347 26.8187 12.8827 26.392 13.352C25.9867 13.8 25.5387 14.1947 25.048 14.536C24.728 14.7493 24.3653 14.856 23.96 14.856C23.768 14.856 23.5973 14.8133 23.448 14.728C23.2987 14.6427 23.224 14.4933 23.224 14.28C23.224 14.216 23.2453 14.0987 23.288 13.928C23.3733 13.6507 23.4907 13.4053 23.64 13.192C23.8107 12.9787 23.9707 12.7653 24.12 12.552C24.2907 12.296 24.4613 11.976 24.632 11.592C24.824 11.1867 24.9947 10.888 25.144 10.696C25.208 10.5893 25.272 10.4933 25.336 10.408C25.4213 10.3227 25.464 10.216 25.464 10.088L25.72 9.48C25.8907 9.416 25.976 9.33067 25.976 9.224C25.976 9.11734 25.9867 9 26.008 8.872C26.0293 8.744 26.072 8.62667 26.136 8.52C26.2213 8.392 26.2747 8.264 26.296 8.136C26.3813 7.816 26.4987 7.51734 26.648 7.24C26.7973 6.94134 26.8827 6.62134 26.904 6.28V6.248C27.032 5.75734 27.1387 5.26667 27.224 4.776C27.3093 4.264 27.352 3.76267 27.352 3.272C27.352 2.824 27.2667 2.46134 27.096 2.184C26.9467 1.90667 26.616 1.768 26.104 1.768C25.9547 1.768 25.784 1.74667 25.592 1.704C25.4 1.66134 25.2187 1.66134 25.048 1.704C25.0053 1.68267 24.952 1.672 24.888 1.672C24.8027 1.672 24.696 1.736 24.568 1.864L24.44 1.896L24.312 1.864C24.2267 1.864 24.1413 1.90667 24.056 1.992C23.992 2.07734 23.9173 2.152 23.832 2.216H23.8C23.0747 2.55733 22.392 2.97333 21.752 3.464C21.112 3.93334 20.4827 4.41334 19.864 4.904C19.8427 4.92534 19.8 4.95734 19.736 5C19.672 5.02134 19.6293 5.05334 19.608 5.096C18.7973 5.75734 18.008 6.46134 17.24 7.208C16.4933 7.95467 15.7573 8.70134 15.032 9.448C14.8613 9.448 14.7547 9.544 14.712 9.736C14.6053 9.77867 14.5413 9.84267 14.52 9.928C14.52 10.0133 14.4987 10.1093 14.456 10.216C14.328 10.3653 14.1787 10.5147 14.008 10.664C13.8373 10.8133 13.6987 10.9733 13.592 11.144C13.5067 11.2933 13.3467 11.496 13.112 11.752C12.8987 12.008 12.728 12.2 12.6 12.328C12.5147 12.4133 12.408 12.488 12.28 12.552C12.1733 12.616 12.12 12.7333 12.12 12.904C12.0347 13.032 11.9387 13.1707 11.832 13.32C11.7253 13.448 11.6187 13.5653 11.512 13.672C11.2987 13.9067 11.1173 14.1733 10.968 14.472C10.84 14.7493 10.6587 14.9947 10.424 15.208C10.3813 15.272 10.296 15.3467 10.168 15.432C10.0613 15.5173 9.98667 15.5813 9.944 15.624C9.92267 15.6667 9.912 15.7093 9.912 15.752C9.93333 15.7733 9.92267 15.8267 9.88 15.912C9.73067 16.1893 9.56 16.4667 9.368 16.744C9.19733 17.0427 9.016 17.32 8.824 17.576C8.67467 17.7893 8.48267 17.9707 8.248 18.12C8.01333 18.2693 7.8 18.344 7.608 18.344ZM42.821 16.008C42.693 16.008 42.629 15.9333 42.629 15.784C42.629 15.6773 42.661 15.5493 42.725 15.4C42.8957 15.0373 43.0877 14.5253 43.301 13.864C43.5357 13.2027 43.8237 12.6373 44.165 12.168C44.3997 11.6987 44.613 11.24 44.805 10.792C45.0183 10.3227 45.221 9.85334 45.413 9.384C45.413 9.384 45.3917 9.37334 45.349 9.352C45.3063 9.30934 45.285 9.26667 45.285 9.224C45.1783 9.13867 45.0503 9.02134 44.901 8.872C44.7517 8.70134 44.741 8.53067 44.869 8.36C44.9117 8.31734 44.933 8.296 44.933 8.296C44.9543 8.296 44.965 8.296 44.965 8.296C44.965 8.27467 44.9543 8.264 44.933 8.264C44.933 8.264 44.933 8.25334 44.933 8.232L44.901 8.2C44.8797 8.2 44.8583 8.2 44.837 8.2C44.837 8.17867 44.8263 8.168 44.805 8.168C44.7197 8.168 44.6237 8.18934 44.517 8.232C44.4103 8.25334 44.3037 8.264 44.197 8.264C44.069 8.264 43.8983 8.31734 43.685 8.424C43.4717 8.50934 43.2797 8.584 43.109 8.648C43.0237 8.66934 42.9703 8.68 42.949 8.68C42.949 8.65867 42.9063 8.66934 42.821 8.712C42.7997 8.73334 42.7997 8.70134 42.821 8.616C42.8637 8.50934 42.885 8.43467 42.885 8.392C42.885 8.37067 42.8743 8.36 42.853 8.36C42.8103 8.36 42.725 8.424 42.597 8.552C42.469 8.65867 42.3837 8.72267 42.341 8.744C42.3197 8.76534 42.309 8.79734 42.309 8.84C42.3303 8.88267 42.341 8.92534 42.341 8.968C42.341 9.032 42.2877 9.10667 42.181 9.192C42.0743 9.256 41.9997 9.30934 41.957 9.352C41.8717 9.416 41.765 9.45867 41.637 9.48C41.5303 9.48 41.4237 9.52267 41.317 9.608C41.189 9.69334 41.125 9.75734 41.125 9.8C41.1463 9.84267 41.0823 9.91734 40.933 10.024C40.741 10.1733 40.4743 10.3973 40.133 10.696C39.813 10.9947 39.5677 11.2613 39.397 11.496C38.9917 11.9867 38.6183 12.552 38.277 13.192C37.957 13.832 37.797 14.3333 37.797 14.696C37.797 14.9733 37.9143 15.112 38.149 15.112C38.1917 15.112 38.2343 15.112 38.277 15.112C38.3197 15.0907 38.373 15.0693 38.437 15.048L39.269 14.568L39.461 14.536V14.504L39.589 14.6C39.6103 14.5787 39.5997 14.5467 39.557 14.504C39.5357 14.44 39.5357 14.408 39.557 14.408C39.5783 14.408 39.589 14.4187 39.589 14.44C39.6103 14.44 39.6317 14.44 39.653 14.44L39.717 14.344C39.717 14.344 39.749 14.3547 39.813 14.376C39.8983 14.376 39.9623 14.3547 40.005 14.312C40.069 14.2907 40.0797 14.2587 40.037 14.216C40.0157 14.1733 39.9837 14.1413 39.941 14.12L40.165 13.928C40.1863 13.8853 40.2717 13.8427 40.421 13.8C40.7837 13.5653 41.0823 13.288 41.317 12.968C41.573 12.6267 41.861 12.3173 42.181 12.04H42.213L42.597 11.656L42.565 11.56L42.981 11.08H43.045C43.0663 11.0373 43.109 10.984 43.173 10.92C43.2583 10.856 43.3117 10.8027 43.333 10.76C43.3757 10.7387 43.4717 10.632 43.621 10.44C43.7917 10.2267 43.9517 10.056 44.101 9.928C44.2717 9.8 44.3677 9.736 44.389 9.736C44.4103 9.736 44.421 9.74667 44.421 9.768C44.421 9.832 44.389 9.928 44.325 10.056C44.2823 10.184 44.2397 10.2693 44.197 10.312C44.0477 10.5467 43.8557 10.8133 43.621 11.112C43.3863 11.3893 43.2477 11.56 43.205 11.624C42.949 11.9013 42.6397 12.2747 42.277 12.744C41.9143 13.192 41.5197 13.64 41.093 14.088C40.6663 14.536 40.2397 14.92 39.813 15.24C39.4077 15.5387 39.0237 15.688 38.661 15.688C38.3197 15.688 37.957 15.5813 37.573 15.368C37.189 15.1547 36.997 14.7493 36.997 14.152C36.997 13.96 37.0183 13.7467 37.061 13.512C37.125 13.256 37.221 12.9893 37.349 12.712C37.349 12.712 37.3703 12.6907 37.413 12.648C37.4557 12.584 37.4877 12.5627 37.509 12.584C37.5517 12.52 37.5623 12.456 37.541 12.392C37.541 12.3067 37.541 12.2533 37.541 12.232L37.605 12.168C37.6477 11.9333 37.8077 11.72 38.085 11.528C38.3623 11.336 38.5117 11.1867 38.533 11.08C38.5543 11.0587 38.565 11.0267 38.565 10.984L38.693 10.568V10.44H38.821L38.917 10.312L38.949 10.248C38.9063 10.2267 38.917 10.1947 38.981 10.152C39.0663 10.088 39.109 10.056 39.109 10.056C39.1303 10.0133 39.1517 9.98134 39.173 9.96C39.2157 9.93867 39.2477 9.91734 39.269 9.896H39.493C39.5357 9.832 39.5143 9.8 39.429 9.8C39.3437 9.8 39.301 9.8 39.301 9.8C39.301 9.77867 39.301 9.768 39.301 9.768C39.3223 9.74667 39.333 9.72534 39.333 9.704L39.685 9.416C39.7917 9.33067 39.8983 9.256 40.005 9.192C40.1117 9.128 40.2077 9.05334 40.293 8.968C40.357 8.968 40.3677 9 40.325 9.064C40.3463 9.10667 40.3677 9.10667 40.389 9.064C40.4317 9.02134 40.453 9 40.453 9L40.613 8.968V8.936C40.613 8.89334 40.6237 8.82934 40.645 8.744C40.6663 8.65867 40.677 8.60534 40.677 8.584C41.125 8.24267 41.5943 7.944 42.085 7.688C42.5757 7.41067 43.0557 7.272 43.525 7.272C44.0797 7.272 44.581 7.48534 45.029 7.912L45.189 8.008C45.2103 8.008 45.221 7.99734 45.221 7.976C45.2637 7.67734 45.509 7.45334 45.957 7.304C46.4263 7.15467 46.8423 7.08 47.205 7.08C47.589 7.08 47.781 7.13334 47.781 7.24C47.781 7.28267 47.717 7.35734 47.589 7.464C47.525 7.50667 47.4183 7.60267 47.269 7.752C47.1197 7.90134 46.9703 8.08267 46.821 8.296C46.7997 8.36 46.7677 8.424 46.725 8.488C46.6823 8.552 46.6397 8.616 46.597 8.68C46.5757 8.72267 46.5437 8.776 46.501 8.84C46.4797 8.88267 46.4477 8.92534 46.405 8.968C46.0423 9.58667 45.7543 10.1093 45.541 10.536C45.3277 10.9627 45.0717 11.5067 44.773 12.168C44.7303 12.296 44.709 12.3707 44.709 12.392C44.709 12.5627 44.805 12.648 44.997 12.648C45.125 12.648 45.253 12.616 45.381 12.552L45.701 12.424C46.213 11.9547 46.7463 11.56 47.301 11.24C47.3223 11.24 47.333 11.24 47.333 11.24C47.3543 11.2187 47.3757 11.208 47.397 11.208C47.461 11.208 47.5037 11.2507 47.525 11.336C47.5463 11.4 47.525 11.4533 47.461 11.496C46.8423 11.8373 46.2663 12.2747 45.733 12.808C45.7117 12.8507 45.6903 12.8933 45.669 12.936C45.6477 12.9787 45.6157 13.0213 45.573 13.064C45.509 13.1067 45.445 13.1813 45.381 13.288C45.317 13.3947 45.285 13.4587 45.285 13.48C45.2637 13.544 45.2317 13.5653 45.189 13.544C45.1677 13.5227 45.1037 13.5547 44.997 13.64C44.9757 13.6613 44.9543 13.704 44.933 13.768C44.933 13.832 44.9223 13.8853 44.901 13.928C44.8583 13.992 44.8157 14.0453 44.773 14.088C44.7303 14.1093 44.709 14.1307 44.709 14.152C44.6877 14.2373 44.645 14.2907 44.581 14.312C44.5383 14.312 44.4957 14.3333 44.453 14.376C44.4317 14.376 44.421 14.3867 44.421 14.408C44.421 14.6 44.3997 14.6853 44.357 14.664C44.3143 14.6427 44.2717 14.664 44.229 14.728C44.1863 14.8133 44.133 14.856 44.069 14.856C43.941 14.8987 43.8877 14.9307 43.909 14.952C43.9517 14.9733 43.9837 14.9947 44.005 15.016C44.0477 15.016 44.0157 15.048 43.909 15.112C43.8663 15.1333 43.8237 15.1973 43.781 15.304C43.7383 15.3893 43.6957 15.4533 43.653 15.496C43.589 15.5387 43.525 15.5707 43.461 15.592C43.397 15.6133 43.3437 15.656 43.301 15.72C43.109 15.912 42.949 16.008 42.821 16.008ZM48.3075 16.008C48.1795 16.008 48.1155 15.9333 48.1155 15.784C48.1155 15.6773 48.1475 15.5493 48.2115 15.4C48.3822 15.0373 48.5742 14.5253 48.7875 13.864C49.0222 13.2027 49.3102 12.6373 49.6515 12.168L51.2515 8.872C51.1235 8.872 50.9955 8.904 50.8675 8.968C50.7608 9.032 50.7075 9.08534 50.7075 9.128C50.7075 9.21334 50.5902 9.29867 50.3555 9.384C50.1208 9.46934 49.9928 9.52267 49.9715 9.544C49.6515 9.62934 49.3528 9.72534 49.0755 9.832C48.8622 10.0667 48.6488 10.3013 48.4355 10.536C48.2435 10.7707 48.0622 11.0053 47.8915 11.24C47.8702 11.2613 47.8488 11.272 47.8275 11.272C47.6355 11.4853 47.4755 11.6453 47.3475 11.752C47.2195 11.8587 47.0808 11.9547 46.9315 12.04C46.8462 12.104 46.7608 12.1253 46.6755 12.104C46.5688 12.0613 46.5582 12.0187 46.6435 11.976C46.7502 11.9333 46.9208 11.784 47.1555 11.528C47.3902 11.272 47.5715 11.08 47.6995 10.952C47.8062 10.888 47.8382 10.888 47.7955 10.952C47.7742 11.016 47.8062 11.0053 47.8915 10.92L48.6915 9.896L48.7235 9.864C48.6168 9.8 48.5635 9.62934 48.5635 9.352C48.5635 9.13867 48.6062 8.968 48.6915 8.84C48.6915 8.81867 48.7128 8.808 48.7555 8.808L49.4275 8.616C49.4915 8.616 49.5342 8.60534 49.5555 8.584C49.5982 8.54134 49.6408 8.488 49.6835 8.424C49.7475 8.33867 49.8222 8.232 49.9075 8.104L50.2915 7.592L50.5475 7.24C50.5475 7.176 50.5902 7.10134 50.6755 7.016C50.7822 6.90934 50.8675 6.83467 50.9315 6.792C51.0168 6.664 51.0702 6.568 51.0915 6.504C51.1342 6.41867 51.1982 6.312 51.2835 6.184C51.2835 6.16267 51.3155 6.152 51.3795 6.152C51.4435 6.13067 51.4755 6.10934 51.4755 6.088C51.4968 5.87467 51.5288 5.77867 51.5715 5.8C51.6355 5.8 51.6675 5.768 51.6675 5.704C51.6675 5.64 51.7102 5.58667 51.7955 5.544L51.9555 5.352C51.9555 5.33067 51.9875 5.288 52.0515 5.224V5.192C52.0515 5.14934 52.0515 5.096 52.0515 5.032C52.0515 4.968 52.0728 4.904 52.1155 4.84C52.1582 4.79734 52.1902 4.776 52.2115 4.776C52.2328 4.776 52.2435 4.776 52.2435 4.776C52.2435 4.75467 52.2328 4.744 52.2115 4.744C52.2115 4.72267 52.2115 4.712 52.2115 4.712C52.2115 4.62667 52.2542 4.57334 52.3395 4.552C52.4248 4.53067 52.4675 4.49867 52.4675 4.456C52.5102 4.15734 52.7662 3.93334 53.2355 3.784C53.7048 3.63467 54.1208 3.56 54.4835 3.56C54.8462 3.56 55.0275 3.61334 55.0275 3.72C55.0275 3.76267 54.9635 3.83734 54.8355 3.944C54.7715 3.96534 54.6648 4.06134 54.5155 4.232C54.3662 4.38134 54.2275 4.56267 54.0995 4.776L53.8435 5.16C53.8222 5.20267 53.7902 5.256 53.7475 5.32C53.7262 5.36267 53.6942 5.40534 53.6515 5.448C53.5022 5.704 53.2995 6.06667 53.0435 6.536C52.8088 6.984 52.5528 7.48534 52.2755 8.04L53.1075 7.944C53.1715 7.944 53.1928 7.95467 53.1715 7.976C53.1715 7.99734 53.2035 7.99734 53.2675 7.976C53.3742 7.976 53.4488 7.96534 53.4915 7.944C53.5342 7.90134 53.6088 7.86934 53.7155 7.848C53.8862 7.82667 54.0782 7.816 54.2915 7.816C54.5262 7.79467 54.7075 7.784 54.8355 7.784C54.9208 7.784 55.0275 7.784 55.1555 7.784C55.2835 7.784 55.3795 7.79467 55.4435 7.816C55.4862 7.816 55.4968 7.83734 55.4755 7.88C55.4755 7.90134 55.4862 7.912 55.5075 7.912C55.5502 7.912 55.5822 7.90134 55.6035 7.88C55.6462 7.85867 55.6888 7.848 55.7315 7.848C55.7528 7.82667 55.7848 7.82667 55.8275 7.848C55.8915 7.848 55.9342 7.848 55.9555 7.848L56.2755 7.944C56.4035 7.96534 56.4675 8.04 56.4675 8.168C56.4888 8.296 56.4355 8.33867 56.3075 8.296C56.2222 8.25334 56.1475 8.232 56.0835 8.232H55.2835C55.1342 8.232 54.9955 8.232 54.8675 8.232C54.7395 8.232 54.6115 8.24267 54.4835 8.264C54.4408 8.28534 54.4195 8.264 54.4195 8.2C54.4408 8.136 54.4302 8.104 54.3875 8.104C54.3662 8.104 54.3342 8.136 54.2915 8.2C54.2488 8.24267 54.2168 8.264 54.1955 8.264L54.0355 8.36C53.6942 8.44534 53.3315 8.54134 52.9475 8.648C52.5635 8.73334 52.1902 8.82934 51.8275 8.936C51.5075 9.59734 51.1982 10.2267 50.8995 10.824C50.6222 11.4 50.4088 11.848 50.2595 12.168C50.2168 12.296 50.1955 12.3707 50.1955 12.392C50.1955 12.5627 50.2915 12.648 50.4835 12.648C50.6115 12.648 50.7395 12.616 50.8675 12.552L51.1875 12.424C51.6995 11.9547 52.2328 11.56 52.7875 11.24C52.8088 11.24 52.8195 11.24 52.8195 11.24C52.8408 11.2187 52.8622 11.208 52.8835 11.208C52.9475 11.208 52.9902 11.2507 53.0115 11.336C53.0328 11.4 53.0115 11.4533 52.9475 11.496C52.3288 11.8373 51.7528 12.2747 51.2195 12.808C51.1982 12.8507 51.1768 12.8933 51.1555 12.936C51.1342 12.9787 51.1022 13.0213 51.0595 13.064C51.0168 13.1067 50.9528 13.1813 50.8675 13.288C50.8035 13.3947 50.7715 13.4587 50.7715 13.48C50.7502 13.544 50.7182 13.5653 50.6755 13.544C50.6542 13.5227 50.5902 13.5547 50.4835 13.64C50.4622 13.6613 50.4408 13.704 50.4195 13.768C50.4195 13.832 50.4088 13.8853 50.3875 13.928C50.3448 13.992 50.3022 14.0453 50.2595 14.088C50.2168 14.1093 50.1955 14.1307 50.1955 14.152C50.1742 14.2373 50.1315 14.2907 50.0675 14.312C50.0248 14.312 49.9822 14.3333 49.9395 14.376C49.9182 14.376 49.9075 14.3867 49.9075 14.408C49.9075 14.6 49.8862 14.6853 49.8435 14.664C49.8008 14.6427 49.7688 14.664 49.7475 14.728C49.6622 14.8133 49.5982 14.856 49.5555 14.856C49.4275 14.8987 49.3742 14.9307 49.3955 14.952C49.4382 14.9733 49.4702 14.9947 49.4915 15.016C49.5342 15.016 49.5022 15.048 49.3955 15.112C49.3528 15.1333 49.3102 15.1973 49.2675 15.304C49.2248 15.3893 49.1822 15.4533 49.1395 15.496C49.0755 15.5387 49.0115 15.5707 48.9475 15.592C48.8835 15.6133 48.8302 15.656 48.7875 15.72C48.5955 15.912 48.4355 16.008 48.3075 16.008ZM50.1315 8.488C50.2168 8.46667 50.2915 8.44534 50.3555 8.424C50.4408 8.40267 50.5262 8.37067 50.6115 8.328L51.5715 8.168C51.8275 7.656 52.0515 7.19734 52.2435 6.792C52.4355 6.36534 52.5742 6.056 52.6595 5.864C52.6595 5.864 52.6382 5.85334 52.5955 5.832C52.5742 5.78934 52.5635 5.74667 52.5635 5.704C52.5208 5.68267 52.4675 5.65067 52.4035 5.608C52.3608 5.56534 52.3182 5.53334 52.2755 5.512L51.9875 5.8L51.6355 6.28C51.6355 6.30134 51.6035 6.32267 51.5395 6.344C51.4968 6.344 51.4755 6.35467 51.4755 6.376C51.4755 6.44 51.4435 6.504 51.3795 6.568C51.3368 6.632 51.2942 6.65334 51.2515 6.632L51.1235 6.952C51.1235 7.016 51.0915 7.06934 51.0275 7.112L50.8035 7.4C50.8035 7.42134 50.7928 7.44267 50.7715 7.464C50.7715 7.464 50.7715 7.48534 50.7715 7.528C50.7502 7.57067 50.7182 7.624 50.6755 7.688C50.6328 7.752 50.5795 7.816 50.5155 7.88C50.4942 7.88 50.4835 7.89067 50.4835 7.912C50.4835 7.912 50.4728 7.912 50.4515 7.912L50.3555 8.104C50.2702 8.14667 50.2168 8.168 50.1955 8.168L50.1635 8.232C50.1635 8.36 50.1528 8.44534 50.1315 8.488ZM56.1975 15.976C55.6642 15.976 55.1948 15.8267 54.7895 15.528C54.3842 15.2293 54.1815 14.7173 54.1815 13.992C54.1815 13.7147 54.2135 13.4373 54.2775 13.16C54.3415 12.8613 54.4162 12.5733 54.5015 12.296C54.5442 12.0187 54.6082 11.7733 54.6935 11.56C54.7148 11.4747 54.7255 11.432 54.7255 11.432C54.7468 11.4107 54.8002 11.3787 54.8855 11.336L55.1415 10.952V10.824C55.1202 10.824 55.1095 10.824 55.1095 10.824C55.1095 10.8027 55.1095 10.792 55.1095 10.792C55.1095 10.728 55.1628 10.6533 55.2695 10.568C55.3762 10.4827 55.4295 10.44 55.4295 10.44C55.4508 10.3333 55.4828 10.28 55.5255 10.28C55.5682 10.28 55.6215 10.248 55.6855 10.184H56.0375V10.12C56.0375 10.0133 55.9842 9.97067 55.8775 9.992C55.7922 9.992 55.7495 9.98134 55.7495 9.96C55.7495 9.93867 55.7815 9.896 55.8455 9.832C55.9308 9.74667 55.9842 9.69334 56.0055 9.672C56.0695 9.58667 56.1228 9.512 56.1655 9.448C56.2082 9.36267 56.2722 9.29867 56.3575 9.256C56.7415 8.78667 56.9762 8.488 57.0615 8.36C57.1682 8.232 57.2748 8.136 57.3815 8.072C57.4242 8.072 57.4562 8.09334 57.4775 8.136C57.5202 8.15734 57.5202 8.18934 57.4775 8.232C57.5202 8.296 57.5522 8.30667 57.5735 8.264C57.6162 8.22134 57.6375 8.2 57.6375 8.2L57.7655 8.136C57.7228 8.09334 57.7015 8.04 57.7015 7.976C57.7015 7.86934 57.7228 7.784 57.7655 7.72C57.8082 7.63467 57.8828 7.54934 57.9895 7.464C58.1175 7.37867 58.1815 7.32534 58.1815 7.304C58.3095 7.26134 58.4055 7.21867 58.4695 7.176C58.5548 7.13334 58.6402 7.112 58.7255 7.112C58.8748 7.112 59.0242 7.16534 59.1735 7.272C59.5788 7.48534 59.9202 7.69867 60.1975 7.912C60.4748 8.12534 60.6135 8.424 60.6135 8.808C60.6135 9.21334 60.4428 9.56534 60.1015 9.864C59.7815 10.1413 59.3868 10.376 58.9175 10.568C58.4482 10.76 57.9788 10.92 57.5095 11.048C57.0615 11.1547 56.7095 11.24 56.4535 11.304C56.3042 11.3253 56.2295 11.3893 56.2295 11.496C56.2508 11.5813 56.2402 11.6773 56.1975 11.784L55.9735 12.136L55.7815 12.584L55.6215 12.872C55.4722 13 55.4188 13.096 55.4615 13.16C55.5042 13.224 55.5788 13.2133 55.6855 13.128C55.7068 13.1493 55.7175 13.1813 55.7175 13.224C55.7175 13.3093 55.6962 13.416 55.6535 13.544C55.6108 13.6507 55.5788 13.736 55.5575 13.8C55.5362 13.8853 55.5362 13.928 55.5575 13.928C55.6002 13.9067 55.6215 13.9493 55.6215 14.056L55.6535 14.504C55.7815 14.9093 56.0695 15.144 56.5175 15.208C56.5602 15.208 56.6028 15.2187 56.6455 15.24C56.7095 15.24 56.7628 15.24 56.8055 15.24C57.1895 15.24 57.3922 15.208 57.4135 15.144C57.4562 15.08 57.5095 15.0373 57.5735 15.016C57.7655 14.9733 57.9255 14.9307 58.0535 14.888C58.2028 14.8453 58.3522 14.7813 58.5015 14.696C58.7575 14.5893 59.0028 14.4507 59.2375 14.28C59.4722 14.1093 59.7175 13.9387 59.9735 13.768L60.2935 13.544C60.3148 13.5013 60.3148 13.4693 60.2935 13.448C60.2722 13.4267 60.2722 13.4053 60.2935 13.384C60.3362 13.3627 60.3682 13.3627 60.3895 13.384C60.4322 13.384 60.4642 13.3733 60.4855 13.352C60.5282 13.3307 60.5708 13.2987 60.6135 13.256C60.6562 13.192 60.6988 13.1387 60.7415 13.096C60.7842 13.0533 60.8055 13.0107 60.8055 12.968C60.8268 12.9253 60.8588 12.8827 60.9015 12.84C61.0722 12.6693 61.2428 12.488 61.4135 12.296C61.6055 12.104 61.7655 11.9333 61.8935 11.784C62.0428 11.5707 62.1602 11.464 62.2455 11.464C62.2882 11.464 62.3095 11.4853 62.3095 11.528C62.3095 11.6347 62.2348 11.7947 62.0855 12.008C61.7228 12.5413 61.3068 13.064 60.8375 13.576C60.3682 14.0667 59.8562 14.5147 59.3015 14.92C58.8962 15.1973 58.4162 15.4427 57.8615 15.656C57.3068 15.8693 56.7522 15.976 56.1975 15.976ZM56.6775 10.824C56.9975 10.8027 57.4135 10.7173 57.9255 10.568C58.4375 10.3973 58.8642 10.1733 59.2055 9.896C59.5682 9.59734 59.7495 9.26667 59.7495 8.904C59.7495 8.56267 59.5682 8.232 59.2055 7.912C58.9068 8.12534 58.5762 8.43467 58.2135 8.84C57.8722 9.224 57.5628 9.608 57.2855 9.992C57.0082 10.3547 56.8055 10.632 56.6775 10.824ZM62.6833 15.848C62.4699 15.848 62.2459 15.8053 62.0113 15.72C61.7766 15.6133 61.6913 15.496 61.7553 15.368C61.8406 15.1973 61.9366 15.0267 62.0433 14.856C62.1713 14.664 62.2886 14.4613 62.3953 14.248L62.7473 13.576C62.7899 13.4693 62.8326 13.3947 62.8753 13.352C62.9393 13.288 62.9926 13.2133 63.0353 13.128C63.0566 13.1067 63.0673 13.0533 63.0673 12.968C63.0673 12.8613 63.1099 12.744 63.1953 12.616C63.3019 12.4667 63.3766 12.328 63.4193 12.2C63.4406 12.1787 63.4619 12.2427 63.4833 12.392C63.5046 12.5413 63.5579 12.5307 63.6433 12.36C63.6646 12.3387 63.6539 12.3067 63.6113 12.264C63.5899 12.2213 63.5793 12.1787 63.5793 12.136C63.5793 12.0933 63.5899 12.072 63.6113 12.072C63.6539 12.0507 63.6753 12.0293 63.6753 12.008C63.6966 11.944 63.6753 11.9227 63.6113 11.944C63.5686 11.944 63.5473 11.9333 63.5473 11.912C63.5899 11.848 63.6326 11.8053 63.6753 11.784C63.7393 11.7627 63.7819 11.7307 63.8033 11.688C63.8033 11.6453 63.7819 11.624 63.7393 11.624C63.7179 11.6027 63.7179 11.5813 63.7393 11.56C63.8459 11.2613 63.9633 10.9093 64.0913 10.504C64.2193 10.0987 64.3153 9.72534 64.3793 9.384C64.3793 9.384 64.3579 9.37334 64.3153 9.352C64.2726 9.30934 64.2513 9.26667 64.2513 9.224L64.0273 9.064C63.7713 9.29867 63.4939 9.50134 63.1953 9.672C63.1739 9.69334 63.1313 9.704 63.0673 9.704C62.9819 9.704 62.9286 9.66134 62.9073 9.576C62.8859 9.49067 62.9179 9.416 63.0033 9.352C63.1099 9.288 63.1953 9.24534 63.2593 9.224C63.3233 9.18134 63.3979 9.11734 63.4833 9.032C63.5259 8.98934 63.5473 8.94667 63.5473 8.904C63.5686 8.86134 63.5899 8.81867 63.6113 8.776L63.7393 8.616C63.7393 8.50934 63.7606 8.424 63.8033 8.36C63.8459 8.31734 63.8779 8.296 63.8993 8.296C63.9206 8.296 63.9313 8.296 63.9313 8.296V8.232C63.9313 8.14667 63.9633 8.09334 64.0273 8.072C64.1126 8.05067 64.1553 8.01867 64.1553 7.976C64.1979 7.67734 64.4539 7.45334 64.9233 7.304C65.3926 7.15467 65.8086 7.08 66.1713 7.08C66.5339 7.08 66.7153 7.13334 66.7153 7.24C66.7153 7.304 66.6513 7.37867 66.5233 7.464C66.4593 7.50667 66.3526 7.60267 66.2033 7.752C66.0539 7.90134 65.9153 8.08267 65.7873 8.296L65.5633 8.68L65.3393 8.968C65.1899 9.30934 64.9766 9.832 64.6993 10.536C64.4219 11.24 64.1339 12.1253 63.8353 13.192C63.8993 13.1067 64.0486 12.9253 64.2833 12.648C64.5179 12.3707 64.7953 12.0507 65.1153 11.688C65.4353 11.3253 65.7446 10.984 66.0433 10.664C66.3419 10.3227 66.5873 10.056 66.7793 9.864L66.9393 9.768C66.9819 9.72534 67.0246 9.672 67.0673 9.608C67.1313 9.52267 67.1846 9.45867 67.2273 9.416C67.2486 9.39467 67.2593 9.43734 67.2593 9.544C67.2806 9.62934 67.3019 9.66134 67.3233 9.64C67.4086 9.576 67.4513 9.48 67.4513 9.352C67.4726 9.224 67.5259 9.13867 67.6113 9.096C67.8459 8.904 68.1659 8.63734 68.5713 8.296C68.9979 7.93334 69.4353 7.72 69.8833 7.656C69.9259 7.61334 69.9899 7.60267 70.0753 7.624C70.1819 7.624 70.2566 7.61334 70.2993 7.592C70.3419 7.592 70.3739 7.58134 70.3953 7.56C70.4166 7.53867 70.4699 7.528 70.5553 7.528C70.5979 7.528 70.6833 7.56 70.8113 7.624C70.9606 7.688 71.0459 7.77334 71.0673 7.88C71.1953 7.96534 71.2593 8.09334 71.2593 8.264C71.2593 8.56267 71.0993 8.78667 70.7793 8.936C70.6726 9.04267 70.5553 9.14934 70.4273 9.256C70.2993 9.34134 70.1713 9.43734 70.0433 9.544C70.0006 9.58667 69.9686 9.608 69.9473 9.608C69.7979 9.736 69.6699 9.87467 69.5633 10.024C69.4566 10.1733 69.4033 10.3653 69.4033 10.6C69.4033 10.6213 69.4246 10.6533 69.4673 10.696C69.5099 10.7173 69.5206 10.7387 69.4993 10.76C69.5633 10.824 69.6593 10.8667 69.7873 10.888C69.9153 10.888 70.0433 10.888 70.1713 10.888C70.3846 10.888 70.7046 10.8027 71.1313 10.632H71.1953C71.2166 10.632 71.2273 10.6427 71.2273 10.664C71.2273 10.7067 71.1846 10.7813 71.0993 10.888C71.0139 10.9733 70.9179 11.0373 70.8113 11.08C70.5766 11.1653 70.3313 11.2187 70.0753 11.24C69.8193 11.24 69.6379 11.24 69.5313 11.24C69.1473 11.24 68.9019 11.1653 68.7953 11.016C68.7099 10.8667 68.6246 10.6853 68.5393 10.472V10.312L68.6993 10.152C68.6779 10.088 68.6459 10.024 68.6033 9.96C68.5606 9.896 68.5393 9.82134 68.5393 9.736C68.5393 9.52267 68.6246 9.27734 68.7953 9C68.5606 9.064 68.2619 9.24534 67.8993 9.544C67.5579 9.82134 67.2059 10.152 66.8433 10.536C66.4806 10.8987 66.1499 11.2613 65.8513 11.624C65.5526 11.9653 65.3179 12.2427 65.1473 12.456C65.0833 12.5413 65.0086 12.5947 64.9233 12.616C64.8593 12.616 64.8059 12.648 64.7633 12.712C64.7419 12.7333 64.7633 12.744 64.8273 12.744C64.9126 12.744 64.9446 12.7547 64.9233 12.776C64.6459 13.2027 64.3473 13.672 64.0273 14.184C63.7286 14.696 63.4299 15.1973 63.1313 15.688C63.0673 15.7947 62.9179 15.848 62.6833 15.848ZM75.896 5.928C75.832 5.928 75.768 5.90667 75.704 5.864C75.6613 5.82134 75.5973 5.768 75.512 5.704C75.4693 5.68267 75.416 5.66134 75.352 5.64C75.3093 5.59734 75.288 5.53334 75.288 5.448C75.2667 5.42667 75.224 5.416 75.16 5.416C75.0533 5.416 75 5.34134 75 5.192C75 5.02134 75.0853 4.904 75.256 4.84L75.416 4.712V4.744L75.544 4.584H75.608C75.736 4.584 75.8213 4.52 75.864 4.392C75.928 4.264 76.056 4.17867 76.248 4.136C76.376 4.09334 76.4827 4.104 76.568 4.168C76.6533 4.232 76.76 4.264 76.888 4.264C77.016 4.264 77.1547 4.22134 77.304 4.136L77.784 4.04C77.848 4.04 77.88 4.06134 77.88 4.104C77.88 4.14667 77.816 4.2 77.688 4.264C77.5813 4.328 77.5067 4.38133 77.464 4.424L77.432 4.456L77.4 4.52L77.272 4.68C77.144 4.82934 76.9947 5.01067 76.824 5.224C76.6747 5.416 76.5147 5.576 76.344 5.704C76.152 5.85334 76.0027 5.928 75.896 5.928ZM71.032 16.008C70.904 16.008 70.84 15.9333 70.84 15.784C70.84 15.6773 70.872 15.5493 70.936 15.4C71.1067 15.0373 71.2987 14.5253 71.512 13.864C71.7467 13.2027 72.0347 12.6373 72.376 12.168C72.6107 11.6987 72.824 11.24 73.016 10.792C73.2293 10.3227 73.432 9.85334 73.624 9.384C73.624 9.384 73.6027 9.37334 73.56 9.352C73.5387 9.30934 73.528 9.26667 73.528 9.224C73.4 9.13867 73.2613 9.02134 73.112 8.872C72.984 8.70134 72.9733 8.53067 73.08 8.36C73.1227 8.31734 73.1547 8.296 73.176 8.296C73.1973 8.296 73.208 8.296 73.208 8.296C73.208 8.27467 73.1973 8.264 73.176 8.264C73.176 8.24267 73.176 8.232 73.176 8.232C73.176 8.14667 73.2187 8.09334 73.304 8.072C73.3893 8.05067 73.432 8.01867 73.432 7.976C73.4747 7.67734 73.7307 7.45334 74.2 7.304C74.6693 7.15467 75.0853 7.08 75.448 7.08C75.8107 7.08 75.992 7.13334 75.992 7.24C75.992 7.28267 75.928 7.35734 75.8 7.464C75.736 7.50667 75.6293 7.60267 75.48 7.752C75.3307 7.90134 75.192 8.08267 75.064 8.296L74.808 8.68C74.7867 8.72267 74.7547 8.776 74.712 8.84C74.6907 8.88267 74.6587 8.92534 74.616 8.968C74.2747 9.58667 73.9973 10.1093 73.784 10.536C73.5707 10.9627 73.3147 11.5067 73.016 12.168C72.9733 12.296 72.952 12.3813 72.952 12.424C72.952 12.5733 73.0373 12.648 73.208 12.648C73.336 12.648 73.464 12.616 73.592 12.552L73.912 12.424C74.424 11.9547 74.9573 11.56 75.512 11.24C75.5333 11.24 75.544 11.24 75.544 11.24C75.5653 11.2187 75.5867 11.208 75.608 11.208C75.672 11.208 75.7147 11.2507 75.736 11.336C75.7573 11.4 75.736 11.4533 75.672 11.496C75.0533 11.8373 74.4773 12.2747 73.944 12.808C73.9227 12.8507 73.9013 12.8933 73.88 12.936C73.8587 12.9787 73.8267 13.0213 73.784 13.064C73.7413 13.1067 73.6773 13.1813 73.592 13.288C73.528 13.3947 73.496 13.4587 73.496 13.48C73.4747 13.544 73.4427 13.5653 73.4 13.544C73.3787 13.5227 73.3147 13.5547 73.208 13.64C73.1867 13.6613 73.1653 13.704 73.144 13.768C73.144 13.832 73.1333 13.8853 73.112 13.928C73.0907 13.992 73.048 14.0453 72.984 14.088C72.9413 14.1093 72.92 14.1307 72.92 14.152C72.8987 14.2373 72.856 14.2907 72.792 14.312C72.7493 14.312 72.7067 14.3333 72.664 14.376C72.6427 14.3973 72.6427 14.4293 72.664 14.472C72.6853 14.5147 72.6747 14.5573 72.632 14.6C72.6107 14.664 72.5893 14.696 72.568 14.696C72.5467 14.6747 72.5147 14.6853 72.472 14.728C72.3867 14.8133 72.3227 14.856 72.28 14.856C72.152 14.8987 72.0987 14.9307 72.12 14.952C72.1627 14.9733 72.1947 14.9947 72.216 15.016C72.2587 15.016 72.2267 15.048 72.12 15.112C72.0773 15.1333 72.0347 15.1973 71.992 15.304C71.9493 15.3893 71.9067 15.4533 71.864 15.496C71.8 15.5387 71.736 15.5707 71.672 15.592C71.6293 15.6133 71.576 15.656 71.512 15.72C71.32 15.912 71.16 16.008 71.032 16.008ZM82.0398 16.008C81.9118 16.008 81.8478 15.9333 81.8478 15.784C81.8478 15.6773 81.8798 15.5493 81.9438 15.4C82.1144 15.0373 82.3064 14.5253 82.5198 13.864C82.7544 13.2027 83.0424 12.6373 83.3838 12.168C83.6184 11.6987 83.8318 11.24 84.0238 10.792C84.2371 10.3227 84.4398 9.85334 84.6318 9.384C84.6318 9.384 84.6104 9.37334 84.5678 9.352C84.5251 9.30934 84.5038 9.26667 84.5038 9.224C84.3971 9.13867 84.2691 9.02134 84.1198 8.872C83.9704 8.70134 83.9598 8.53067 84.0878 8.36C84.1304 8.31734 84.1518 8.296 84.1518 8.296C84.1731 8.296 84.1838 8.296 84.1838 8.296C84.1838 8.27467 84.1731 8.264 84.1518 8.264C84.1518 8.264 84.1518 8.25334 84.1518 8.232L84.1198 8.2C84.0984 8.2 84.0771 8.2 84.0558 8.2C84.0558 8.17867 84.0451 8.168 84.0238 8.168C83.9384 8.168 83.8424 8.18934 83.7358 8.232C83.6291 8.25334 83.5224 8.264 83.4158 8.264C83.2878 8.264 83.1171 8.31734 82.9038 8.424C82.6904 8.50934 82.4984 8.584 82.3278 8.648C82.2424 8.66934 82.1891 8.68 82.1678 8.68C82.1678 8.65867 82.1251 8.66934 82.0398 8.712C82.0184 8.73334 82.0184 8.70134 82.0398 8.616C82.0824 8.50934 82.1038 8.43467 82.1038 8.392C82.1038 8.37067 82.0931 8.36 82.0718 8.36C82.0291 8.36 81.9438 8.424 81.8158 8.552C81.6878 8.65867 81.6024 8.72267 81.5598 8.744C81.5384 8.76534 81.5278 8.79734 81.5278 8.84C81.5491 8.88267 81.5598 8.92534 81.5598 8.968C81.5598 9.032 81.5064 9.10667 81.3998 9.192C81.2931 9.256 81.2184 9.30934 81.1758 9.352C81.0904 9.416 80.9838 9.45867 80.8558 9.48C80.7491 9.48 80.6424 9.52267 80.5358 9.608C80.4078 9.69334 80.3438 9.75734 80.3438 9.8C80.3651 9.84267 80.3011 9.91734 80.1518 10.024C79.9598 10.1733 79.6931 10.3973 79.3518 10.696C79.0318 10.9947 78.7864 11.2613 78.6158 11.496C78.2104 11.9867 77.8371 12.552 77.4958 13.192C77.1758 13.832 77.0158 14.3333 77.0158 14.696C77.0158 14.9733 77.1331 15.112 77.3678 15.112C77.4104 15.112 77.4531 15.112 77.4958 15.112C77.5384 15.0907 77.5918 15.0693 77.6558 15.048L78.4878 14.568L78.6798 14.536V14.504L78.8078 14.6C78.8291 14.5787 78.8184 14.5467 78.7758 14.504C78.7544 14.44 78.7544 14.408 78.7758 14.408C78.7971 14.408 78.8078 14.4187 78.8078 14.44C78.8291 14.44 78.8504 14.44 78.8718 14.44L78.9358 14.344C78.9358 14.344 78.9678 14.3547 79.0318 14.376C79.1171 14.376 79.1811 14.3547 79.2238 14.312C79.2878 14.2907 79.2984 14.2587 79.2558 14.216C79.2344 14.1733 79.2024 14.1413 79.1598 14.12L79.3838 13.928C79.4051 13.8853 79.4904 13.8427 79.6398 13.8C80.0024 13.5653 80.3011 13.288 80.5358 12.968C80.7918 12.6267 81.0798 12.3173 81.3998 12.04H81.4318L81.8158 11.656L81.7838 11.56L82.1998 11.08H82.2638C82.2851 11.0373 82.3278 10.984 82.3918 10.92C82.4771 10.856 82.5304 10.8027 82.5518 10.76C82.5944 10.7387 82.6904 10.632 82.8398 10.44C83.0104 10.2267 83.1704 10.056 83.3198 9.928C83.4904 9.8 83.5864 9.736 83.6078 9.736C83.6291 9.736 83.6398 9.74667 83.6398 9.768C83.6398 9.832 83.6078 9.928 83.5438 10.056C83.5011 10.184 83.4584 10.2693 83.4158 10.312C83.2664 10.5467 83.0744 10.8133 82.8398 11.112C82.6051 11.3893 82.4664 11.56 82.4238 11.624C82.1678 11.9013 81.8584 12.2747 81.4958 12.744C81.1331 13.192 80.7384 13.64 80.3118 14.088C79.8851 14.536 79.4584 14.92 79.0318 15.24C78.6264 15.5387 78.2424 15.688 77.8798 15.688C77.5384 15.688 77.1758 15.5813 76.7918 15.368C76.4078 15.1547 76.2158 14.7493 76.2158 14.152C76.2158 13.96 76.2371 13.7467 76.2798 13.512C76.3438 13.256 76.4398 12.9893 76.5678 12.712C76.5678 12.712 76.5891 12.6907 76.6318 12.648C76.6744 12.584 76.7064 12.5627 76.7278 12.584C76.7704 12.52 76.7811 12.456 76.7598 12.392C76.7598 12.3067 76.7598 12.2533 76.7598 12.232L76.8238 12.168C76.8664 11.9333 77.0264 11.72 77.3038 11.528C77.5811 11.336 77.7304 11.1867 77.7518 11.08C77.7731 11.0587 77.7838 11.0267 77.7838 10.984L77.9118 10.568V10.44H78.0398L78.1358 10.312L78.1678 10.248C78.1251 10.2267 78.1358 10.1947 78.1998 10.152C78.2851 10.088 78.3278 10.056 78.3278 10.056C78.3491 10.0133 78.3704 9.98134 78.3918 9.96C78.4344 9.93867 78.4664 9.91734 78.4878 9.896H78.7118C78.7544 9.832 78.7331 9.8 78.6478 9.8C78.5624 9.8 78.5198 9.8 78.5198 9.8C78.5198 9.77867 78.5198 9.768 78.5198 9.768C78.5411 9.74667 78.5518 9.72534 78.5518 9.704L78.9038 9.416C79.0104 9.33067 79.1171 9.256 79.2238 9.192C79.3304 9.128 79.4264 9.05334 79.5118 8.968C79.5758 8.968 79.5864 9 79.5438 9.064C79.5651 9.10667 79.5864 9.10667 79.6078 9.064C79.6504 9.02134 79.6718 9 79.6718 9L79.8318 8.968V8.936C79.8318 8.89334 79.8424 8.82934 79.8638 8.744C79.8851 8.65867 79.8958 8.60534 79.8958 8.584C80.3438 8.24267 80.8131 7.944 81.3038 7.688C81.7944 7.41067 82.2744 7.272 82.7438 7.272C83.2984 7.272 83.7998 7.48534 84.2478 7.912L84.4078 8.008C84.4291 8.008 84.4398 7.99734 84.4398 7.976C84.4824 7.67734 84.7278 7.45334 85.1758 7.304C85.6451 7.15467 86.0611 7.08 86.4238 7.08C86.8078 7.08 86.9998 7.13334 86.9998 7.24C86.9998 7.28267 86.9358 7.35734 86.8078 7.464C86.7438 7.50667 86.6371 7.60267 86.4878 7.752C86.3384 7.90134 86.1891 8.08267 86.0398 8.296C86.0184 8.36 85.9864 8.424 85.9438 8.488C85.9011 8.552 85.8584 8.616 85.8158 8.68C85.7944 8.72267 85.7624 8.776 85.7198 8.84C85.6984 8.88267 85.6664 8.92534 85.6238 8.968C85.2611 9.58667 84.9731 10.1093 84.7598 10.536C84.5464 10.9627 84.2904 11.5067 83.9918 12.168C83.9491 12.296 83.9278 12.3707 83.9278 12.392C83.9278 12.5627 84.0238 12.648 84.2158 12.648C84.3438 12.648 84.4718 12.616 84.5998 12.552L84.9198 12.424C85.4318 11.9547 85.9651 11.56 86.5198 11.24C86.5411 11.24 86.5518 11.24 86.5518 11.24C86.5731 11.2187 86.5944 11.208 86.6158 11.208C86.6798 11.208 86.7224 11.2507 86.7438 11.336C86.7651 11.4 86.7438 11.4533 86.6798 11.496C86.0611 11.8373 85.4851 12.2747 84.9518 12.808C84.9304 12.8507 84.9091 12.8933 84.8878 12.936C84.8664 12.9787 84.8344 13.0213 84.7918 13.064C84.7278 13.1067 84.6638 13.1813 84.5998 13.288C84.5358 13.3947 84.5038 13.4587 84.5038 13.48C84.4824 13.544 84.4504 13.5653 84.4078 13.544C84.3864 13.5227 84.3224 13.5547 84.2158 13.64C84.1944 13.6613 84.1731 13.704 84.1518 13.768C84.1518 13.832 84.1411 13.8853 84.1198 13.928C84.0771 13.992 84.0344 14.0453 83.9918 14.088C83.9491 14.1093 83.9278 14.1307 83.9278 14.152C83.9064 14.2373 83.8638 14.2907 83.7998 14.312C83.7571 14.312 83.7144 14.3333 83.6718 14.376C83.6504 14.376 83.6398 14.3867 83.6398 14.408C83.6398 14.6 83.6184 14.6853 83.5758 14.664C83.5331 14.6427 83.4904 14.664 83.4478 14.728C83.4051 14.8133 83.3518 14.856 83.2878 14.856C83.1598 14.8987 83.1064 14.9307 83.1278 14.952C83.1704 14.9733 83.2024 14.9947 83.2238 15.016C83.2664 15.016 83.2344 15.048 83.1278 15.112C83.0851 15.1333 83.0424 15.1973 82.9998 15.304C82.9571 15.3893 82.9144 15.4533 82.8718 15.496C82.8078 15.5387 82.7438 15.5707 82.6798 15.592C82.6158 15.6133 82.5624 15.656 82.5198 15.72C82.3278 15.912 82.1678 16.008 82.0398 16.008ZM89.1583 16.04C89.1369 16.04 89.1049 16.0187 89.0623 15.976C89.0196 15.9547 88.9876 15.944 88.9663 15.944C88.8809 15.9653 88.8063 15.976 88.7423 15.976C88.6783 15.976 88.6143 15.976 88.5503 15.976C88.5289 15.976 88.5076 15.9653 88.4863 15.944C88.4863 15.9227 88.4756 15.912 88.4543 15.912C88.4329 15.912 88.4223 15.912 88.4223 15.912C88.4436 15.9333 88.4436 15.944 88.4223 15.944C88.4223 15.944 88.4009 15.9333 88.3583 15.912C88.3156 15.8907 88.2836 15.88 88.2623 15.88L88.2303 15.848C88.1876 15.848 88.1556 15.8373 88.1343 15.816C88.1343 15.7947 88.1236 15.784 88.1023 15.784L88.0703 15.816L88.0383 15.784C87.9956 15.7627 87.9316 15.7413 87.8463 15.72C87.7823 15.6773 87.7289 15.6453 87.6863 15.624C87.6436 15.624 87.5903 15.592 87.5263 15.528H87.4623C87.4196 15.464 87.3449 15.4213 87.2383 15.4C87.2383 15.3787 87.2276 15.3573 87.2063 15.336H87.1743C87.1316 15.272 87.0996 15.2507 87.0783 15.272C87.0569 15.2293 87.0249 15.1973 86.9823 15.176C86.9609 15.1333 86.9289 15.1013 86.8863 15.08C86.8863 14.9947 86.8649 14.952 86.8223 14.952C86.8223 14.9093 86.7796 14.8453 86.6943 14.76C86.6303 14.6747 86.5876 14.6 86.5663 14.536L86.5343 14.504C86.4489 14.4187 86.3849 14.28 86.3423 14.088C86.3209 14.0027 86.2996 13.9707 86.2783 13.992C86.2783 14.0133 86.2676 13.96 86.2463 13.832C86.2463 13.8107 86.2463 13.7787 86.2463 13.736C86.2676 13.672 86.2676 13.6293 86.2463 13.608C86.2463 13.5867 86.2356 13.576 86.2143 13.576C86.2143 13.5547 86.2143 13.5333 86.2143 13.512C86.1929 13.4907 86.1823 13.48 86.1823 13.48C86.2036 13.4587 86.2143 13.448 86.2143 13.448C86.2143 13.4053 86.2036 13.384 86.1823 13.384C86.1823 13.3627 86.1823 13.3413 86.1823 13.32V13.256C86.1823 13.1493 86.2036 13.0747 86.2463 13.032C86.2463 12.9893 86.2569 12.9573 86.2783 12.936C86.2996 12.9147 86.3103 12.8933 86.3103 12.872C86.3103 12.8293 86.3316 12.808 86.3743 12.808C86.4169 12.808 86.4383 12.7973 86.4383 12.776C86.4383 12.7333 86.4489 12.712 86.4703 12.712C86.5129 12.6907 86.5449 12.6693 86.5663 12.648C86.5663 12.6267 86.5769 12.6053 86.5983 12.584C86.6409 12.5627 86.6623 12.5413 86.6623 12.52C86.7689 12.456 86.8863 12.424 87.0143 12.424C87.2703 12.424 87.3983 12.488 87.3983 12.616C87.3983 12.6587 87.3343 12.7333 87.2063 12.84C87.1849 12.904 87.1743 12.9467 87.1743 12.968C87.1956 12.968 87.1849 12.9893 87.1423 13.032C87.1636 13.096 87.1743 13.1813 87.1743 13.288C87.1529 13.288 87.1423 13.32 87.1423 13.384C87.1636 13.4267 87.1743 13.448 87.1743 13.448C87.1743 13.4693 87.1849 13.5333 87.2063 13.64C87.2489 13.7467 87.2809 13.8107 87.3023 13.832C87.3023 13.832 87.3236 13.8853 87.3663 13.992C87.4089 14.0773 87.4303 14.1307 87.4303 14.152V14.216C87.4729 14.28 87.4943 14.3227 87.4943 14.344C87.5156 14.344 87.6009 14.3867 87.7503 14.472C87.7716 14.4933 87.8143 14.504 87.8783 14.504C87.9849 14.568 88.0596 14.6213 88.1023 14.664C88.1663 14.7067 88.3156 14.7493 88.5503 14.792C88.6356 14.8133 88.6676 14.8347 88.6463 14.856C88.6463 14.856 88.6889 14.856 88.7743 14.856C88.7743 14.856 88.7743 14.8667 88.7743 14.888C88.7743 14.888 88.7849 14.888 88.8063 14.888C88.8489 14.8667 88.8916 14.8667 88.9343 14.888C88.9769 14.888 89.0196 14.8773 89.0623 14.856H89.1903C89.3396 14.856 89.4996 14.8347 89.6703 14.792L90.1503 14.664C90.2996 14.6427 90.4383 14.6 90.5663 14.536C90.6943 14.472 90.8116 14.408 90.9183 14.344C90.9396 14.344 91.0036 14.312 91.1103 14.248C91.2169 14.1627 91.3449 14.0773 91.4943 13.992C91.4729 13.928 91.4623 13.8427 91.4623 13.736C91.4623 13.672 91.4943 13.64 91.5583 13.64C91.6223 13.6187 91.6649 13.5867 91.6863 13.544C91.6223 13.5013 91.5369 13.48 91.4303 13.48C91.3449 13.48 91.3129 13.448 91.3343 13.384C91.2489 12.9147 91.1209 12.488 90.9503 12.104C90.8009 11.72 90.6196 11.2933 90.4063 10.824C90.3849 10.76 90.3423 10.6533 90.2783 10.504C90.2143 10.3547 90.1716 10.2373 90.1503 10.152C90.1503 10.1307 90.1716 10.1307 90.2143 10.152C90.2569 10.152 90.2676 10.1413 90.2463 10.12C90.2249 10.0133 90.2036 9.90667 90.1823 9.8C90.1823 9.69334 90.1716 9.59734 90.1503 9.512C90.1289 9.46934 90.1503 9.43734 90.2143 9.416C90.2783 9.39467 90.2996 9.36267 90.2783 9.32C90.2569 9.27734 90.2143 9.26667 90.1503 9.288C90.0863 9.30934 90.0436 9.29867 90.0223 9.256L89.9263 8.872C89.9263 8.76534 89.9049 8.70134 89.8623 8.68C89.8409 8.65867 89.8623 8.616 89.9263 8.552C89.9689 8.53067 89.9903 8.49867 89.9903 8.456C89.9903 8.392 90.0009 8.34934 90.0223 8.328C90.1289 8.264 90.1716 8.18934 90.1503 8.104C90.1289 7.99734 90.1503 7.90134 90.2143 7.816C90.2783 7.73067 90.3316 7.656 90.3743 7.592C90.4169 7.50667 90.4809 7.45334 90.5663 7.432C90.6303 7.38934 90.6516 7.4 90.6303 7.464C90.6089 7.528 90.6089 7.56 90.6303 7.56C90.7369 7.56 90.7796 7.50667 90.7583 7.4C90.7369 7.29334 90.7689 7.19734 90.8543 7.112C91.0036 6.984 91.2276 6.87734 91.5263 6.792C91.8249 6.70667 92.0489 6.65334 92.1983 6.632C92.2409 6.632 92.2729 6.632 92.2943 6.632C92.3369 6.61067 92.3689 6.6 92.3903 6.6C92.4969 6.6 92.6036 6.61067 92.7103 6.632C92.8383 6.65334 92.9556 6.67467 93.0623 6.696C93.1476 6.71734 93.2756 6.80267 93.4463 6.952C93.6169 7.08 93.7449 7.112 93.8303 7.048C94.0223 6.87734 94.2249 6.728 94.4383 6.6C94.6729 6.472 94.8223 6.41867 94.8863 6.44C95.0569 6.46134 95.2063 6.51467 95.3343 6.6C95.4623 6.664 95.5049 6.87734 95.4623 7.24C95.4409 7.368 95.3876 7.47467 95.3023 7.56C95.2383 7.624 95.1743 7.70934 95.1103 7.816L94.8863 8.136C94.8009 8.28534 94.6943 8.43467 94.5663 8.584C94.4596 8.73334 94.3636 8.82934 94.2783 8.872C94.1929 8.91467 94.1076 8.98934 94.0223 9.096C93.9583 9.18134 93.8729 9.26667 93.7663 9.352C93.6596 9.43734 93.5423 9.50134 93.4143 9.544C93.3076 9.56534 93.2329 9.58667 93.1903 9.608C93.1263 9.62934 93.0303 9.64 92.9023 9.64C92.7956 9.61867 92.7636 9.576 92.8063 9.512C92.8489 9.49067 92.8596 9.46934 92.8383 9.448C92.8169 9.40534 92.8063 9.37334 92.8063 9.352C92.8063 9.30934 92.8276 9.27734 92.8703 9.256C92.9343 9.23467 92.9769 9.20267 92.9983 9.16C93.0196 9.13867 93.0729 9.064 93.1583 8.936C93.2649 8.808 93.3076 8.73334 93.2863 8.712C93.2863 8.648 93.3076 8.59467 93.3503 8.552C93.3503 8.50934 93.3503 8.47734 93.3503 8.456C93.3503 8.41334 93.3716 8.38134 93.4143 8.36C93.4996 8.33867 93.5423 8.30667 93.5423 8.264V7.88C93.5423 7.79467 93.5316 7.70934 93.5103 7.624C93.5103 7.53867 93.4889 7.464 93.4463 7.4C93.2756 7.18667 92.9983 7.08 92.6143 7.08C92.3369 7.08 92.0703 7.144 91.8143 7.272C91.5369 7.4 91.3023 7.61334 91.1103 7.912C90.9609 8.12534 90.8863 8.34934 90.8863 8.584C90.8863 8.75467 90.9183 8.92534 90.9823 9.096C91.0676 9.26667 91.1423 9.42667 91.2063 9.576C91.2703 9.72534 91.3556 9.90667 91.4623 10.12C91.5903 10.3333 91.6863 10.504 91.7503 10.632C91.8569 10.8027 91.9743 11.0053 92.1023 11.24C92.2303 11.4533 92.3263 11.656 92.3903 11.848C92.4116 11.8693 92.3903 11.8907 92.3263 11.912C92.2836 11.912 92.2729 11.9333 92.2943 11.976C92.3156 12.0187 92.3476 12.04 92.3903 12.04C92.4329 12.04 92.4649 12.0613 92.4863 12.104C92.5289 12.168 92.5289 12.2213 92.4863 12.264C92.4649 12.3067 92.4649 12.3707 92.4863 12.456C92.4863 12.4773 92.5076 12.4987 92.5503 12.52C92.5929 12.5413 92.6143 12.5627 92.6143 12.584C92.7209 12.8613 92.7743 13.0853 92.7743 13.256C92.9663 13.1493 93.1796 13.0213 93.4143 12.872C93.6489 12.7227 93.7769 12.584 93.7983 12.456C93.8196 12.4133 93.8516 12.4027 93.8943 12.424C93.9583 12.424 93.9903 12.4453 93.9903 12.488C93.9689 12.6373 93.7876 12.84 93.4463 13.096C93.1263 13.352 92.8809 13.5333 92.7103 13.64C92.7316 13.6613 92.7209 13.7147 92.6783 13.8C92.6356 13.8853 92.6249 13.9493 92.6463 13.992C92.6463 14.0133 92.6356 14.0453 92.6143 14.088C92.5929 14.1093 92.5716 14.1413 92.5503 14.184C92.5503 14.2693 92.5289 14.3333 92.4863 14.376V14.44L92.3903 14.504C92.3689 14.5253 92.3369 14.5787 92.2943 14.664C92.2729 14.728 92.2409 14.7813 92.1983 14.824H92.1023C92.0596 14.8667 92.0383 14.92 92.0383 14.984C91.9956 15.048 91.8996 15.1227 91.7503 15.208C91.6009 15.272 91.5049 15.336 91.4623 15.4C91.4623 15.4 91.4516 15.4 91.4303 15.4C91.4089 15.4 91.3769 15.4213 91.3343 15.464H91.2383C91.2169 15.464 91.1956 15.4853 91.1743 15.528C91.1529 15.5493 91.1316 15.5707 91.1103 15.592C91.0463 15.592 91.0143 15.6133 91.0143 15.656C90.9289 15.656 90.8649 15.6667 90.8223 15.688L90.5023 15.752C90.4169 15.8373 90.3423 15.88 90.2783 15.88L90.2463 15.848C90.2036 15.8907 90.1716 15.912 90.1503 15.912H90.0223C90.0009 15.912 89.9796 15.9227 89.9583 15.944C89.9369 15.9653 89.9156 15.976 89.8943 15.976H89.8303C89.8089 15.976 89.7876 15.976 89.7663 15.976C89.7663 15.9973 89.7449 16.008 89.7023 16.008C89.6383 16.008 89.5423 16.008 89.4143 16.008C89.3076 16.008 89.2223 16.0187 89.1583 16.04ZM88.8383 15.752C88.8383 15.752 88.8596 15.752 88.9023 15.752C88.9663 15.7307 89.0089 15.72 89.0303 15.72C89.1369 15.72 89.2329 15.7307 89.3183 15.752C89.4036 15.752 89.4889 15.752 89.5743 15.752C89.6169 15.752 89.6383 15.7307 89.6383 15.688H89.7023C89.7663 15.624 89.7983 15.6133 89.7983 15.656C89.8196 15.6987 89.8516 15.6987 89.8943 15.656C89.9369 15.656 89.9583 15.6453 89.9583 15.624L90.0863 15.56C90.1076 15.56 90.1183 15.56 90.1183 15.56C90.1183 15.5387 90.1289 15.528 90.1503 15.528H90.2143C90.2569 15.528 90.2996 15.5067 90.3423 15.464C90.3849 15.4213 90.4063 15.4 90.4063 15.4C90.4063 15.4 90.4383 15.368 90.5023 15.304C90.5023 15.304 90.5129 15.304 90.5343 15.304C90.5556 15.2827 90.5769 15.272 90.5983 15.272C90.6409 15.2293 90.6836 15.208 90.7263 15.208C90.7263 15.1867 90.7476 15.1653 90.7903 15.144C90.8329 15.1013 90.8543 15.08 90.8543 15.08C90.8756 15.0587 90.8969 15.048 90.9183 15.048C90.9609 15.0267 90.9823 15.0053 90.9823 14.984C91.0249 14.984 91.1103 14.9093 91.2383 14.76C91.3663 14.6107 91.4516 14.4293 91.4943 14.216C91.4943 14.1733 91.4303 14.2053 91.3023 14.312C91.1743 14.3973 91.1103 14.44 91.1103 14.44C91.0463 14.4613 90.9823 14.504 90.9183 14.568C90.8543 14.6107 90.8009 14.632 90.7583 14.632C90.7369 14.632 90.7049 14.6533 90.6623 14.696C90.6409 14.7173 90.6196 14.728 90.5983 14.728C90.5769 14.728 90.5663 14.7387 90.5663 14.76C90.5663 14.76 90.5449 14.7493 90.5023 14.728C90.4809 14.7707 90.4169 14.8133 90.3103 14.856C90.2036 14.8987 90.1289 14.92 90.0863 14.92H89.9903L89.9583 14.952C89.9583 14.952 89.9476 14.9627 89.9263 14.984C89.9049 14.984 89.8836 14.984 89.8623 14.984L89.6383 15.016H89.6063C89.5849 15.016 89.5636 15.0267 89.5423 15.048C89.4569 15.048 89.3609 15.0587 89.2543 15.08C89.1476 15.1013 89.0836 15.112 89.0623 15.112H89.0303C89.0303 15.0907 89.0196 15.08 88.9983 15.08V15.112H88.8383C88.7743 15.112 88.6996 15.1013 88.6143 15.08C88.5503 15.0373 88.4969 15.016 88.4543 15.016C88.4329 15.016 88.4223 15.0267 88.4223 15.048C88.4223 15.048 88.4116 15.048 88.3903 15.048H88.3263C88.3049 15.048 88.2943 15.0373 88.2943 15.016H88.1343C88.1343 14.952 88.1129 14.9413 88.0703 14.984H88.0383C87.9529 14.984 87.8783 14.952 87.8143 14.888C87.7716 14.824 87.6969 14.792 87.5903 14.792L87.4943 14.696C87.4943 14.7173 87.4836 14.7387 87.4623 14.76C87.4623 14.76 87.4623 14.7707 87.4623 14.792C87.4623 14.792 87.4729 14.8133 87.4943 14.856C87.5369 14.8773 87.5583 14.8987 87.5583 14.92L87.6223 15.048L87.7503 15.208L87.8143 15.272C87.8356 15.2933 87.8463 15.304 87.8463 15.304C87.8676 15.304 87.8889 15.3253 87.9103 15.368C87.9529 15.368 87.9743 15.4 87.9743 15.464C88.3369 15.656 88.6249 15.752 88.8383 15.752Z" fill="#FFCC00"/>
</g>
<defs>
<filter id="filter0_d_3_2" x="0" y="0" width="106.526" height="35.344" filterUnits="userSpaceOnUse" color-interpolation-filters="sRGB">
<feFlood flood-opacity="0" result="BackgroundImageFix"/>
<feColorMatrix in="SourceAlpha" type="matrix" values="0 0 0 0 0 0 0 0 0 0 0 0 0 0 0 0 0 0 127 0" result="hardAlpha"/>
<feOffset dx="2" dy="8"/>
<feGaussianBlur stdDeviation="4.5"/>
<feComposite in2="hardAlpha" operator="out"/>
<feColorMatrix type="matrix" values="0 0 0 0 0 0 0 0 0 0 0 0 0 0 0 0 0 0 0.25 0"/>
<feBlend mode="normal" in2="BackgroundImageFix" result="effect1_dropShadow_3_2"/>
<feBlend mode="normal" in="SourceGraphic" in2="effect1_dropShadow_3_2" result="shape"/>
</filter>
</defs>
</svg>
