<svg width="73" height="36" viewBox="0 0 73 36" fill="none" xmlns="http://www.w3.org/2000/svg">
<g filter="url(#filter0_d_3_2)">
<path d="M14.808 18.76L14.52 18.664C14.4987 18.728 14.4453 18.7493 14.36 18.728C14.296 18.728 14.2427 18.7067 14.2 18.664C14.0933 18.4933 13.976 18.4187 13.848 18.44C13.72 18.4827 13.5493 18.4613 13.336 18.376H13.304C13.24 18.376 13.1653 18.3867 13.08 18.408C13.016 18.4507 12.952 18.4613 12.888 18.44L12.664 18.248C12.664 18.2693 12.6427 18.28 12.6 18.28C12.536 18.28 12.472 18.2693 12.408 18.248C12.344 18.2267 12.3227 18.2053 12.344 18.184L11.8 17.896L11.736 17.928L11.384 17.544C11.3627 17.5653 11.3413 17.576 11.32 17.576C11.2773 17.576 11.2347 17.544 11.192 17.48C11.1493 17.4373 11.1173 17.416 11.096 17.416C10.968 17.3093 10.8187 17.2027 10.648 17.096C10.4987 17.0107 10.3493 16.9147 10.2 16.808C10.1787 16.7867 10.168 16.744 10.168 16.68C10.168 16.6373 10.1467 16.6053 10.104 16.584C10.04 16.52 9.96533 16.456 9.88 16.392C9.79467 16.328 9.74133 16.2533 9.72 16.168L9.592 16.2C9.464 15.9653 9.31467 15.752 9.144 15.56C8.97333 15.368 8.89867 15.112 8.92 14.792H8.856L8.44 14.632V14.536C8.41867 14.536 8.38667 14.5467 8.344 14.568C8.30133 14.568 8.248 14.5573 8.184 14.536C8.03467 14.472 7.896 14.3973 7.768 14.312C7.64 14.2053 7.544 14.0773 7.48 13.928C7.45867 13.864 7.42667 13.832 7.384 13.832C7.36267 13.832 7.34133 13.8213 7.32 13.8C7.27733 13.6933 7.21333 13.5973 7.128 13.512C7.04267 13.4267 7.01067 13.32 7.032 13.192L7.128 12.392C7.29867 12.2 7.42667 12.104 7.512 12.104C7.59733 12.104 7.64 12.2 7.64 12.392L7.448 12.712L7.48 13.096C7.52267 13.1387 7.58667 13.16 7.672 13.16C7.75733 13.16 7.82133 13.1493 7.864 13.128L7.832 13.32L7.96 13.544L7.992 13.48L8.184 13.544L8.344 13.768C8.38667 13.6827 8.42933 13.6827 8.472 13.768C8.51467 13.832 8.536 13.864 8.536 13.864L8.696 13.736C8.67467 13.6293 8.65333 13.5227 8.632 13.416C8.61067 13.288 8.6 13.1707 8.6 13.064C8.6 12.9147 8.61067 12.808 8.632 12.744C8.696 12.5093 8.71733 12.328 8.696 12.2C8.696 12.2 8.73867 12.1253 8.824 11.976C8.90933 11.8053 8.99467 11.6987 9.08 11.656L9.336 11.496L9.4 11.592C9.37867 11.6133 9.336 11.6773 9.272 11.784C9.208 11.8907 9.15467 11.9653 9.112 12.008C8.94133 12.3707 8.87733 12.7333 8.92 13.096C8.92 13.1173 8.92 13.1493 8.92 13.192C8.94133 13.2133 8.94133 13.256 8.92 13.32V13.768C8.96267 13.7893 8.984 13.8747 8.984 14.024C8.984 14.152 9.00533 14.2053 9.048 14.184C9.15467 14.1627 9.24 14.1947 9.304 14.28C9.38933 14.344 9.45333 14.312 9.496 14.184L9.72 14.44H10.04C10.0187 14.4827 10.072 14.5253 10.2 14.568C10.3493 14.5893 10.4987 14.6 10.648 14.6C10.7973 14.6 10.872 14.6 10.872 14.6L11.064 14.76C11.064 14.7387 11.096 14.76 11.16 14.824H11.192C11.256 14.824 11.32 14.8027 11.384 14.76C11.4693 14.7173 11.5333 14.696 11.576 14.696C11.6827 14.7173 11.7893 14.76 11.896 14.824C12.024 14.888 12.12 14.888 12.184 14.824L12.44 14.92L12.728 14.76C12.7707 14.8027 12.856 14.8453 12.984 14.888C13.0267 14.9093 13.0907 14.92 13.176 14.92C13.368 14.92 13.5067 14.8773 13.592 14.792L13.72 14.952C14.0187 14.9307 14.3173 14.9307 14.616 14.952C14.936 14.952 15.2347 14.952 15.512 14.952C15.7467 14.952 15.9707 14.952 16.184 14.952C16.4187 14.9307 16.6427 14.9093 16.856 14.888C16.92 14.888 16.9733 14.888 17.016 14.888C17.0587 14.8667 17.0907 14.856 17.112 14.856C17.2613 14.856 17.432 14.8133 17.624 14.728C17.816 14.6427 17.976 14.6 18.104 14.6C18.1467 14.6 18.2427 14.568 18.392 14.504C18.5627 14.4187 18.616 14.472 18.552 14.664L18.232 14.824L18.136 14.792C18.1147 14.8133 18.0187 14.8667 17.848 14.952C17.6987 15.016 17.6133 15.0267 17.592 14.984L16.92 15.08C16.8347 15.1013 16.7067 15.1227 16.536 15.144C16.3653 15.1653 16.28 15.1653 16.28 15.144L15.992 15.208C15.992 15.1867 15.9707 15.176 15.928 15.176C15.8427 15.176 15.7147 15.208 15.544 15.272C15.3947 15.336 15.3093 15.3573 15.288 15.336C15.2667 15.2933 15.16 15.2933 14.968 15.336C14.7973 15.3573 14.6267 15.368 14.456 15.368C14.2 15.368 14.0613 15.3253 14.04 15.24L13.784 15.336C13.8267 15.2933 13.8053 15.272 13.72 15.272C13.656 15.2507 13.6027 15.2507 13.56 15.272L13.528 15.432C13.4853 15.4533 13.4427 15.4533 13.4 15.432C13.3573 15.4107 13.3147 15.3893 13.272 15.368C13.144 15.304 12.9413 15.272 12.664 15.272C12.3867 15.272 12.12 15.2613 11.864 15.24C11.608 15.2187 11.448 15.1653 11.384 15.08L11.128 15.208C11.0427 15.208 10.9147 15.1973 10.744 15.176C10.5947 15.1333 10.4773 15.1013 10.392 15.08C10.2427 15.0373 10.072 14.9947 9.88 14.952C9.70933 14.9093 9.53867 14.8987 9.368 14.92L9.528 15.176V15.24C9.67733 15.3253 9.79467 15.464 9.88 15.656C9.98667 15.8267 10.1467 15.8907 10.36 15.848L10.456 16.264L10.712 16.424C10.7333 16.4027 10.7547 16.392 10.776 16.392C10.84 16.392 10.9467 16.4347 11.096 16.52C11.2453 16.6053 11.3627 16.6693 11.448 16.712L11.544 16.648L11.704 16.936C11.7253 16.9147 11.7467 16.904 11.768 16.904C11.832 16.904 11.9067 16.9253 11.992 16.968C12.0773 17.0107 12.1307 17.0213 12.152 17L12.376 17.064L12.6 17C12.6853 17.128 12.7387 17.224 12.76 17.288C12.7813 17.352 12.8133 17.3947 12.856 17.416C12.9627 17.4587 12.9627 17.4907 12.856 17.512C12.7707 17.5333 12.728 17.5653 12.728 17.608L12.76 17.672H13.048C13.048 17.608 13.1227 17.5547 13.272 17.512C13.4427 17.4907 13.6133 17.48 13.784 17.48C14.04 17.48 14.1893 17.5013 14.232 17.544C14.3173 17.5867 14.3387 17.5867 14.296 17.544L14.584 17.512L14.776 17.672C14.8187 17.608 14.8613 17.576 14.904 17.576C14.968 17.576 15.0213 17.5867 15.064 17.608C15.128 17.6507 15.16 17.672 15.16 17.672C15.2027 17.6933 15.2453 17.6507 15.288 17.544C15.352 17.4587 15.4267 17.4267 15.512 17.448L15.64 17.48C15.7893 17.48 15.9387 17.4587 16.088 17.416C16.2587 17.3733 16.3547 17.416 16.376 17.544L16.6 17.384L16.76 17.416L16.696 17.672C16.696 17.7573 16.7067 17.8 16.728 17.8C16.7707 17.8 16.824 17.7253 16.888 17.576C16.9733 17.448 17.016 17.4373 17.016 17.544L17.24 17.288C17.304 17.3307 17.3893 17.352 17.496 17.352C17.6667 17.352 17.8267 17.288 17.976 17.16C18.1253 17.0533 18.3067 16.9787 18.52 16.936L18.552 17C18.5947 16.9787 18.6373 16.9573 18.68 16.936C18.744 16.936 18.776 16.9573 18.776 17L19.128 16.968C19.2133 16.904 19.352 16.8293 19.544 16.744C19.7573 16.6587 19.9067 16.5947 19.992 16.552L20.024 16.424C20.024 16.424 20.0773 16.424 20.184 16.424C20.312 16.4027 20.3867 16.3813 20.408 16.36V16.328C20.408 16.2853 20.408 16.2213 20.408 16.136C20.408 16.0293 20.4507 15.9867 20.536 16.008L20.696 16.104C20.888 16.04 21.016 15.9547 21.08 15.848C21.1653 15.72 21.2933 15.6027 21.464 15.496C21.528 15.4533 21.5813 15.4 21.624 15.336C21.688 15.272 21.7627 15.2293 21.848 15.208C21.8693 15.208 21.9013 15.24 21.944 15.304C22.008 15.368 22.072 15.3573 22.136 15.272L22.168 14.952L22.456 14.856L22.616 14.632C22.616 14.632 22.616 14.6427 22.616 14.664C22.6373 14.664 22.6587 14.664 22.68 14.664C22.7653 14.664 22.8613 14.5787 22.968 14.408C23.0747 14.2373 23.096 14.12 23.032 14.056L23.352 13.704C23.3307 13.576 23.3733 13.416 23.48 13.224C23.608 13.032 23.672 12.7973 23.672 12.52C23.672 12.3493 23.6187 12.1467 23.512 11.912C23.4053 11.6773 23.192 11.4213 22.872 11.144L22.712 11.048C22.456 10.8773 22.2213 10.7493 22.008 10.664C21.816 10.5573 21.56 10.4507 21.24 10.344C21.24 10.344 21.208 10.3227 21.144 10.28L20.248 10.024C20.1627 9.96 19.9707 9.90667 19.672 9.864C19.3733 9.82133 19.1707 9.78933 19.064 9.768C19.0213 9.74667 18.968 9.71467 18.904 9.672C18.8613 9.62933 18.8187 9.64 18.776 9.704L18.488 9.544C18.4453 9.56533 18.392 9.576 18.328 9.576C18.2853 9.576 18.2427 9.56533 18.2 9.544C18.1787 9.52267 18.1147 9.512 18.008 9.512C17.8587 9.49067 17.6133 9.42667 17.272 9.32C16.952 9.21333 16.7707 9.18133 16.728 9.224L15.896 8.808L15.8 8.84L15.512 8.68C15.576 8.76533 15.5333 8.78667 15.384 8.744C15.2347 8.68 15.064 8.60533 14.872 8.52C14.68 8.41333 14.5307 8.34933 14.424 8.328C14.0613 8.17867 13.7307 7.96533 13.432 7.688C13.1547 7.41067 13.016 7.06933 13.016 6.664C13.016 6.30133 13.0373 6.04533 13.08 5.896C13.1227 5.74667 13.176 5.61867 13.24 5.512C13.3253 5.40533 13.4 5.24533 13.464 5.032C13.5067 4.968 13.56 4.904 13.624 4.84C13.7093 4.75467 13.7627 4.66933 13.784 4.584L14.04 4.424C14.0613 4.31733 14.1147 4.21067 14.2 4.104C14.3067 3.99733 14.4027 3.92267 14.488 3.88C14.7653 3.752 15.0747 3.53867 15.416 3.24C15.7787 2.92 16.1307 2.68533 16.472 2.536C16.5573 2.49333 16.632 2.46133 16.696 2.44C16.76 2.39733 16.8347 2.36533 16.92 2.344L16.952 2.408C17.144 2.344 17.464 2.248 17.912 2.12C18.36 1.97067 18.8507 1.82133 19.384 1.672C19.9387 1.52267 20.4507 1.39467 20.92 1.288C21.4107 1.18133 21.7947 1.128 22.072 1.128C22.264 1.128 22.3707 1.16 22.392 1.224L22.776 1C22.7973 1.02133 22.84 1.04267 22.904 1.064C22.968 1.064 23.0107 1.05333 23.032 1.032L23.352 1.128C23.4373 1.08533 23.5013 1.064 23.544 1.064C23.672 1.064 23.8107 1.10667 23.96 1.192C24.1307 1.256 24.2587 1.27733 24.344 1.256C24.4507 1.21333 24.5253 1.20267 24.568 1.224C24.632 1.224 24.696 1.224 24.76 1.224H24.888C24.952 1.224 25.016 1.23467 25.08 1.256C25.1653 1.256 25.2507 1.29867 25.336 1.384L25.496 1.416C25.56 1.48 25.592 1.55467 25.592 1.64C25.6347 1.72533 25.7627 1.77867 25.976 1.8C26.1893 1.82133 26.328 1.864 26.392 1.928C26.5627 2.056 26.6587 2.26933 26.68 2.568C26.7227 2.84533 26.744 3.10133 26.744 3.336C26.7227 3.57067 26.6267 3.85867 26.456 4.2C26.3067 4.52 26.1147 4.776 25.88 4.968C25.7733 5.05333 25.6133 5.14933 25.4 5.256C25.1867 5.34133 25.0267 5.416 24.92 5.48C24.6853 5.62933 24.4293 5.704 24.152 5.704C23.7467 5.704 23.544 5.61867 23.544 5.448C23.544 5.384 23.6187 5.32 23.768 5.256C23.8747 5.21333 23.9707 5.17067 24.056 5.128C24.1627 5.064 24.2587 4.98933 24.344 4.904C24.4293 4.86133 24.4827 4.84 24.504 4.84C24.5467 4.81867 24.5787 4.79733 24.6 4.776C24.6427 4.75467 24.6747 4.73333 24.696 4.712C24.7173 4.66933 24.76 4.62667 24.824 4.584C24.952 4.47733 25.112 4.30667 25.304 4.072C25.5173 3.816 25.6667 3.624 25.752 3.496C25.7733 3.38933 25.816 3.25067 25.88 3.08C25.9653 2.888 26.008 2.71733 26.008 2.568C26.008 2.44 25.976 2.344 25.912 2.28C25.8907 2.28 25.88 2.26933 25.88 2.248L25.848 2.184C25.6773 1.82133 25.336 1.61867 24.824 1.576C24.3333 1.512 23.9173 1.48 23.576 1.48C23.576 1.48 23.5547 1.46933 23.512 1.448C23.4693 1.42667 23.448 1.43733 23.448 1.48L22.744 1.544L22.68 1.48L22.008 1.608L21.944 1.576L21.24 1.768C21.2613 1.72533 21.2507 1.71467 21.208 1.736C21.1653 1.736 21.144 1.736 21.144 1.736L20.44 1.928L20.408 1.896L20.088 2.088C20.088 2.06667 20.0773 2.04533 20.056 2.024C20.0347 2.00267 20.024 1.992 20.024 1.992C20.0027 2.01333 19.9813 2.04533 19.96 2.088C19.9387 2.10933 19.9067 2.13067 19.864 2.152L19.8 2.12L19.352 2.28C19.352 2.30133 19.3093 2.312 19.224 2.312C18.648 2.568 18.0187 2.86667 17.336 3.208C16.6747 3.528 16.1627 3.98667 15.8 4.584L15.736 4.52L15.448 4.776C15.4267 4.79733 15.3947 4.82933 15.352 4.872C15.3307 4.91467 15.2987 4.98933 15.256 5.096C15.192 5.26667 15.096 5.46933 14.968 5.704C14.8613 5.93867 14.808 6.16267 14.808 6.376C14.808 6.58933 14.8507 6.792 14.936 6.984C15.0213 7.15467 15.0853 7.19733 15.128 7.112L15.416 7.304L15.512 7.656L15.576 7.624L15.992 7.944H16.056L16.568 8.36L16.952 8.584H17.208L17.592 8.712C17.6347 8.73333 17.6667 8.76533 17.688 8.808C17.7307 8.82933 17.784 8.808 17.848 8.744L18.168 8.968C18.1893 8.94667 18.2213 8.936 18.264 8.936C18.3067 8.936 18.3493 8.95733 18.392 9C18.4347 9.02133 18.4667 9.04267 18.488 9.064L18.552 9.032L19.672 9.48C19.7147 9.45867 19.768 9.448 19.832 9.448C19.9387 9.448 20.024 9.46933 20.088 9.512C20.1733 9.53333 20.2587 9.55467 20.344 9.576C20.3867 9.59733 20.44 9.62933 20.504 9.672C20.5893 9.71467 20.632 9.74667 20.632 9.768C20.6747 9.78933 20.7173 9.8 20.76 9.8C20.824 9.8 20.8773 9.8 20.92 9.8L21.208 9.896L21.496 10.056L21.784 10.088C21.784 10.088 21.8693 10.1307 22.04 10.216C22.232 10.28 22.424 10.344 22.616 10.408C22.8293 10.472 22.9467 10.5147 22.968 10.536L23.16 10.728L23.192 10.696L23.416 10.824C23.6507 10.9733 23.8853 11.2613 24.12 11.688C24.376 12.0933 24.504 12.5413 24.504 13.032C24.504 13.352 24.4507 13.672 24.344 13.992C24.2587 14.2907 24.152 14.536 24.024 14.728C23.704 15.1547 23.352 15.5387 22.968 15.88C22.6053 16.2213 22.2747 16.5093 21.976 16.744C21.8693 16.808 21.7947 16.8613 21.752 16.904C21.7093 16.9467 21.6453 16.968 21.56 16.968C21.496 16.9893 21.4427 17.0213 21.4 17.064C21.1013 17.2347 20.7707 17.384 20.408 17.512C20.0453 17.6613 19.7253 17.8 19.448 17.928C19.32 17.9707 19.2133 17.992 19.128 17.992C19.0427 18.0133 18.9573 18.0347 18.872 18.056C18.8507 18.056 18.808 18.0667 18.744 18.088C18.7013 18.1307 18.68 18.1413 18.68 18.12L18.456 18.28C18.4347 18.2587 18.4027 18.248 18.36 18.248C18.2747 18.248 18.1787 18.2907 18.072 18.376C17.9867 18.4613 17.9013 18.4933 17.816 18.472H17.784C17.72 18.472 17.6347 18.4827 17.528 18.504C17.4427 18.5467 17.3787 18.5467 17.336 18.504L16.92 18.664L16.856 18.504C16.8347 18.504 16.8027 18.5253 16.76 18.568C16.7387 18.632 16.7067 18.664 16.664 18.664C16.664 18.664 16.6213 18.6427 16.536 18.6C16.4507 18.5573 16.3867 18.5787 16.344 18.664L15.992 18.76C15.9707 18.6747 15.9067 18.632 15.8 18.632C15.7147 18.632 15.64 18.664 15.576 18.728L15.32 18.6V18.632L15.064 18.6L14.808 18.76ZM27.414 16.52C26.8807 16.52 26.4113 16.3707 26.006 16.072C25.6007 15.7733 25.398 15.2613 25.398 14.536C25.398 14.2587 25.43 13.9813 25.494 13.704C25.558 13.4053 25.6327 13.1173 25.718 12.84C25.7607 12.5627 25.8247 12.3173 25.91 12.104C25.9313 12.0187 25.942 11.976 25.942 11.976C25.9633 11.9547 26.0167 11.9227 26.102 11.88L26.358 11.496V11.368C26.3367 11.368 26.326 11.368 26.326 11.368C26.326 11.3467 26.326 11.336 26.326 11.336C26.326 11.272 26.3793 11.1973 26.486 11.112C26.5927 11.0267 26.646 10.984 26.646 10.984C26.6673 10.8773 26.6993 10.824 26.742 10.824C26.7847 10.824 26.838 10.792 26.902 10.728H27.254V10.664C27.254 10.5573 27.2007 10.5147 27.094 10.536C27.0087 10.536 26.966 10.5253 26.966 10.504C26.966 10.4827 26.998 10.44 27.062 10.376C27.1473 10.2907 27.2007 10.2373 27.222 10.216C27.286 10.1307 27.3393 10.056 27.382 9.992C27.4247 9.90667 27.4887 9.84267 27.574 9.8C27.958 9.33067 28.1927 9.032 28.278 8.904C28.3847 8.776 28.4913 8.68 28.598 8.616C28.6407 8.616 28.6727 8.63733 28.694 8.68C28.7367 8.70133 28.7367 8.73333 28.694 8.776C28.7367 8.84 28.7687 8.85067 28.79 8.808C28.8327 8.76533 28.854 8.744 28.854 8.744L28.982 8.68C28.9393 8.63733 28.918 8.584 28.918 8.52C28.918 8.41333 28.9393 8.328 28.982 8.264C29.0247 8.17867 29.0993 8.09333 29.206 8.008C29.334 7.92267 29.398 7.86933 29.398 7.848C29.526 7.80533 29.622 7.76267 29.686 7.72C29.7713 7.67733 29.8567 7.656 29.942 7.656C30.0913 7.656 30.2407 7.70933 30.39 7.816C30.7953 8.02933 31.1367 8.24267 31.414 8.456C31.6913 8.66933 31.83 8.968 31.83 9.352C31.83 9.75733 31.6593 10.1093 31.318 10.408C30.998 10.6853 30.6033 10.92 30.134 11.112C29.6647 11.304 29.1953 11.464 28.726 11.592C28.278 11.6987 27.926 11.784 27.67 11.848C27.5207 11.8693 27.446 11.9333 27.446 12.04C27.4673 12.1253 27.4567 12.2213 27.414 12.328L27.19 12.68L26.998 13.128L26.838 13.416C26.6887 13.544 26.6353 13.64 26.678 13.704C26.7207 13.768 26.7953 13.7573 26.902 13.672C26.9233 13.6933 26.934 13.7253 26.934 13.768C26.934 13.8533 26.9127 13.96 26.87 14.088C26.8273 14.1947 26.7953 14.28 26.774 14.344C26.7527 14.4293 26.7527 14.472 26.774 14.472C26.8167 14.4507 26.838 14.4933 26.838 14.6L26.87 15.048C26.998 15.4533 27.286 15.688 27.734 15.752C27.7767 15.752 27.8193 15.7627 27.862 15.784C27.926 15.784 27.9793 15.784 28.022 15.784C28.406 15.784 28.6087 15.752 28.63 15.688C28.6727 15.624 28.726 15.5813 28.79 15.56C28.982 15.5173 29.142 15.4747 29.27 15.432C29.4193 15.3893 29.5687 15.3253 29.718 15.24C29.974 15.1333 30.2193 14.9947 30.454 14.824C30.6887 14.6533 30.934 14.4827 31.19 14.312L31.51 14.088C31.5313 14.0453 31.5313 14.0133 31.51 13.992C31.4887 13.9707 31.4887 13.9493 31.51 13.928C31.5527 13.9067 31.5847 13.9067 31.606 13.928C31.6487 13.928 31.6807 13.9173 31.702 13.896C31.7447 13.8747 31.7873 13.8427 31.83 13.8C31.8727 13.736 31.9153 13.6827 31.958 13.64C32.0007 13.5973 32.022 13.5547 32.022 13.512C32.0433 13.4693 32.0753 13.4267 32.118 13.384C32.2887 13.2133 32.4593 13.032 32.63 12.84C32.822 12.648 32.982 12.4773 33.11 12.328C33.2593 12.1147 33.3767 12.008 33.462 12.008C33.5047 12.008 33.526 12.0293 33.526 12.072C33.526 12.1787 33.4513 12.3387 33.302 12.552C32.9393 13.0853 32.5233 13.608 32.054 14.12C31.5847 14.6107 31.0727 15.0587 30.518 15.464C30.1127 15.7413 29.6327 15.9867 29.078 16.2C28.5233 16.4133 27.9687 16.52 27.414 16.52ZM27.894 11.368C28.214 11.3467 28.63 11.2613 29.142 11.112C29.654 10.9413 30.0807 10.7173 30.422 10.44C30.7847 10.1413 30.966 9.81067 30.966 9.448C30.966 9.10667 30.7847 8.776 30.422 8.456C30.1233 8.66933 29.7927 8.97867 29.43 9.384C29.0887 9.768 28.7793 10.152 28.502 10.536C28.2247 10.8987 28.022 11.176 27.894 11.368ZM32.7158 16.552C32.5878 16.552 32.5238 16.4773 32.5238 16.328C32.5238 16.2213 32.5558 16.0933 32.6198 15.944C32.7904 15.5813 32.9931 15.0693 33.2278 14.408C33.4624 13.7467 33.7504 13.1813 34.0918 12.712L35.3398 9.928C35.3398 9.928 35.3184 9.91733 35.2758 9.896C35.2331 9.85333 35.2118 9.81067 35.2118 9.768C35.0838 9.68267 34.9451 9.56533 34.7958 9.416C34.6678 9.24533 34.6571 9.07467 34.7638 8.904C34.8064 8.86133 34.8384 8.84 34.8598 8.84C34.8811 8.84 34.8918 8.84 34.8918 8.84V8.776C34.8918 8.69067 34.9238 8.63733 34.9878 8.616C35.0731 8.59467 35.1264 8.56267 35.1478 8.52C35.1904 8.22133 35.4358 7.99733 35.8838 7.848C36.3531 7.69867 36.7691 7.624 37.1318 7.624C37.4944 7.624 37.6758 7.67733 37.6758 7.784C37.6758 7.848 37.6118 7.92267 37.4838 8.008C37.4411 8.05067 37.3344 8.14667 37.1638 8.296C37.0144 8.44533 36.8758 8.62667 36.7478 8.84L36.5238 9.224L36.2998 9.512C35.9584 10.1307 35.6811 10.6533 35.4678 11.08C35.2544 11.5067 34.9984 12.0507 34.6998 12.712C34.6358 12.84 34.6038 12.9467 34.6038 13.032C34.6038 13.1387 34.6464 13.192 34.7318 13.192C34.7744 13.192 34.8171 13.1813 34.8598 13.16C34.9238 13.1173 34.9878 13.0853 35.0518 13.064C35.2224 12.9573 35.3611 12.8613 35.4678 12.776C35.5958 12.6693 35.7344 12.5627 35.8838 12.456C35.9478 12.392 36.0011 12.392 36.0438 12.456C36.0864 12.4987 36.0864 12.5627 36.0438 12.648C35.9584 12.8187 35.8944 12.9253 35.8518 12.968C35.8304 12.9893 35.7984 13.0107 35.7558 13.032C35.7131 13.0533 35.6171 13.1493 35.4678 13.32L35.3398 13.576C35.2971 13.6187 35.2438 13.704 35.1798 13.832C35.1371 13.9387 35.1158 14.0027 35.1158 14.024C35.1158 14.0667 35.0944 14.088 35.0518 14.088C35.0091 14.0667 34.9451 14.0987 34.8598 14.184C34.8384 14.2053 34.8278 14.248 34.8278 14.312C34.8491 14.376 34.8384 14.4293 34.7958 14.472C34.7744 14.536 34.7424 14.5893 34.6998 14.632C34.6571 14.6533 34.6358 14.6747 34.6358 14.696C34.6144 14.7813 34.5718 14.8347 34.5078 14.856C34.4651 14.856 34.4224 14.8773 34.3798 14.92C34.3584 14.92 34.3478 14.9413 34.3478 14.984C34.3478 15.1547 34.3264 15.2293 34.2838 15.208C34.2411 15.1867 34.1984 15.208 34.1558 15.272C34.1131 15.3573 34.0598 15.4 33.9958 15.4C33.8678 15.4427 33.8144 15.4747 33.8358 15.496C33.8571 15.5173 33.8891 15.5387 33.9318 15.56C33.9744 15.56 33.9424 15.592 33.8358 15.656C33.7718 15.6773 33.7184 15.7413 33.6758 15.848C33.6331 15.9333 33.5904 15.9973 33.5478 16.04C33.5051 16.0827 33.4518 16.1147 33.3878 16.136C33.3238 16.1573 33.2704 16.2 33.2278 16.264C33.0358 16.456 32.8651 16.552 32.7158 16.552ZM42.2518 16.296C42.1664 16.296 42.0918 16.296 42.0278 16.296C41.9638 16.2747 41.8998 16.2533 41.8358 16.232C41.6224 16.1893 41.4304 16.1253 41.2598 16.04C41.1104 15.9547 40.9824 15.7947 40.8758 15.56C40.8544 15.4533 40.8011 15.3147 40.7158 15.144C40.6518 14.9733 40.6091 14.8133 40.5878 14.664C40.5664 14.5573 40.5558 14.4293 40.5558 14.28C40.5344 14.1733 40.5238 14.0347 40.5238 13.864C40.4811 13.6507 40.4598 13.4587 40.4598 13.288C40.4811 13.1173 40.4918 12.9147 40.4918 12.68C40.4918 12.4453 40.5024 12.2747 40.5238 12.168C40.5664 11.976 40.5878 11.88 40.5878 11.88C40.5878 11.8587 40.5878 11.752 40.5878 11.56C40.6091 11.304 40.6198 11.0373 40.6198 10.76C40.6198 10.4827 40.6304 10.2587 40.6518 10.088C40.7158 9.448 40.5878 9.128 40.2678 9.128C40.1398 9.128 39.9691 9.18133 39.7558 9.288C39.7344 9.352 39.6918 9.39467 39.6278 9.416C39.5851 9.416 39.5211 9.43733 39.4358 9.48L39.2758 9.576C39.2758 9.59733 39.2544 9.608 39.2118 9.608C39.1691 9.58667 39.1478 9.59733 39.1478 9.64C39.1691 9.72533 39.1584 9.77867 39.1158 9.8C39.0944 9.82133 39.0624 9.81067 39.0198 9.768L38.6678 10.024C38.6678 10.0453 38.6358 10.088 38.5718 10.152L38.5398 10.184C38.4544 10.2693 38.3798 10.312 38.3158 10.312L38.2198 10.408C38.2198 10.4293 38.1984 10.472 38.1558 10.536C38.1344 10.5787 38.0811 10.5893 37.9958 10.568L37.8358 10.728C37.7504 10.856 37.6758 10.9307 37.6118 10.952C37.5691 10.9733 37.5158 10.9947 37.4518 11.016L37.1958 11.336L37.0678 11.368C37.0678 11.4533 36.9718 11.5813 36.7798 11.752C36.6091 11.9227 36.4918 12.04 36.4278 12.104C36.3638 12.168 36.2998 12.2 36.2358 12.2C36.1931 12.2 36.1718 12.1787 36.1718 12.136C36.1718 12.1147 36.2251 12.0293 36.3318 11.88C36.4171 11.7947 36.5451 11.6347 36.7158 11.4C36.9078 11.1653 37.0144 11.0587 37.0358 11.08C37.1424 10.9733 37.2171 10.8667 37.2598 10.76C37.3024 10.632 37.3771 10.5253 37.4838 10.44C37.4838 10.4613 37.4838 10.4827 37.4838 10.504C37.5051 10.504 37.5158 10.504 37.5158 10.504C37.5584 10.504 37.6118 10.4507 37.6758 10.344C37.7398 10.216 37.7824 10.1627 37.8038 10.184L38.3478 9.704C38.3478 9.68267 38.4011 9.64 38.5078 9.576C38.5931 9.53333 38.6464 9.512 38.6678 9.512C38.6891 9.512 38.7424 9.448 38.8278 9.32L39.0518 9.16C39.0731 9.11733 39.0944 9.128 39.1158 9.192C39.1584 9.23467 39.1904 9.24533 39.2118 9.224L39.3078 9C39.3504 8.936 39.4144 8.88267 39.4998 8.84C39.6064 8.776 39.7131 8.712 39.8198 8.648C40.0758 8.392 40.2678 8.264 40.3958 8.264H40.5238C40.8011 8.15733 41.0571 8.104 41.2918 8.104C41.6331 8.104 41.8998 8.232 42.0918 8.488C42.1344 8.552 42.1771 8.66933 42.2198 8.84C42.2624 8.86133 42.2731 8.89333 42.2518 8.936C42.2518 8.95733 42.2624 8.98933 42.2838 9.032C42.3051 9.07467 42.3478 9.128 42.4118 9.192C42.4758 9.23467 42.5078 9.288 42.5078 9.352V9.416C42.5078 9.50133 42.4544 9.576 42.3478 9.64C42.4544 9.72533 42.4971 9.77867 42.4758 9.8C42.4758 9.8 42.4651 9.832 42.4438 9.896L42.3798 10.344C42.3584 10.4933 42.3264 10.6107 42.2838 10.696C42.2411 10.76 42.1984 10.8773 42.1558 11.048C42.2411 11.176 42.2411 11.2613 42.1558 11.304H42.0918L42.0598 11.432C42.0598 11.4747 42.0811 11.5173 42.1238 11.56L42.0278 11.752C42.0491 11.7307 42.0598 11.7307 42.0598 11.752C42.0811 11.752 42.0918 11.752 42.0918 11.752C42.0704 11.7947 42.0384 11.88 41.9958 12.008C41.9531 12.1147 41.9211 12.2 41.8998 12.264C41.8784 12.3707 41.8358 12.424 41.7718 12.424C41.7078 12.424 41.6864 12.4773 41.7078 12.584C41.7291 12.6053 41.7398 12.68 41.7398 12.808C41.7611 12.9147 41.7504 12.968 41.7078 12.968L41.6438 13.352V13.448C41.6438 13.5547 41.6224 13.6613 41.5798 13.768C41.5584 13.8747 41.5371 13.9813 41.5158 14.088C41.4944 14.1947 41.4731 14.312 41.4518 14.44C41.4518 14.5467 41.4518 14.6533 41.4518 14.76C41.4518 14.8453 41.4518 14.9413 41.4518 15.048C41.4731 15.1333 41.4944 15.2187 41.5158 15.304C41.5158 15.3253 41.5478 15.3893 41.6118 15.496C41.6758 15.6027 41.7078 15.6667 41.7078 15.688L41.8038 15.784C41.8464 15.8053 41.9104 15.8053 41.9958 15.784C42.1024 15.7627 42.1771 15.7733 42.2198 15.816C42.4118 15.8373 42.6571 15.7413 42.9558 15.528C43.2758 15.2933 43.5638 15.0373 43.8198 14.76C43.8838 14.696 43.9478 14.664 44.0118 14.664C44.0544 14.664 44.0864 14.696 44.1078 14.76C44.1291 14.824 44.1078 14.9093 44.0438 15.016C43.7024 15.5067 43.3824 15.848 43.0838 16.04C42.7851 16.2107 42.5078 16.296 42.2518 16.296ZM50.3813 16.552C50.2533 16.552 50.1893 16.4773 50.1893 16.328C50.1893 16.2213 50.2213 16.0933 50.2853 15.944C50.4559 15.5813 50.6479 15.0693 50.8613 14.408C51.0959 13.7467 51.3839 13.1813 51.7253 12.712C51.9599 12.2427 52.1733 11.784 52.3653 11.336C52.5786 10.8667 52.7813 10.3973 52.9733 9.928C52.9733 9.928 52.9519 9.91733 52.9093 9.896C52.8666 9.85333 52.8453 9.81067 52.8453 9.768C52.7386 9.68267 52.6106 9.56533 52.4613 9.416C52.3119 9.24533 52.3013 9.07467 52.4293 8.904C52.4719 8.86133 52.4933 8.84 52.4933 8.84C52.5146 8.84 52.5253 8.84 52.5253 8.84C52.5253 8.81867 52.5146 8.808 52.4933 8.808C52.4933 8.808 52.4933 8.79733 52.4933 8.776L52.4613 8.744C52.4399 8.744 52.4186 8.744 52.3973 8.744C52.3973 8.72267 52.3866 8.712 52.3653 8.712C52.2799 8.712 52.1839 8.73333 52.0773 8.776C51.9706 8.79733 51.8639 8.808 51.7573 8.808C51.6293 8.808 51.4586 8.86133 51.2453 8.968C51.0319 9.05333 50.8399 9.128 50.6693 9.192C50.5839 9.21333 50.5306 9.224 50.5093 9.224C50.5093 9.20267 50.4666 9.21333 50.3813 9.256C50.3599 9.27733 50.3599 9.24533 50.3813 9.16C50.4239 9.05333 50.4453 8.97867 50.4453 8.936C50.4453 8.91467 50.4346 8.904 50.4133 8.904C50.3706 8.904 50.2853 8.968 50.1573 9.096C50.0293 9.20267 49.9439 9.26667 49.9013 9.288C49.8799 9.30933 49.8693 9.34133 49.8693 9.384C49.8906 9.42667 49.9013 9.46933 49.9013 9.512C49.9013 9.576 49.8479 9.65067 49.7413 9.736C49.6346 9.8 49.5599 9.85333 49.5173 9.896C49.4319 9.96 49.3253 10.0027 49.1973 10.024C49.0906 10.024 48.9839 10.0667 48.8773 10.152C48.7493 10.2373 48.6853 10.3013 48.6853 10.344C48.7066 10.3867 48.6426 10.4613 48.4933 10.568C48.3013 10.7173 48.0346 10.9413 47.6933 11.24C47.3733 11.5387 47.1279 11.8053 46.9573 12.04C46.5519 12.5307 46.1786 13.096 45.8373 13.736C45.5173 14.376 45.3573 14.8773 45.3573 15.24C45.3573 15.5173 45.4746 15.656 45.7093 15.656C45.7519 15.656 45.7946 15.656 45.8373 15.656C45.8799 15.6347 45.9333 15.6133 45.9973 15.592L46.8293 15.112L47.0213 15.08V15.048L47.1493 15.144C47.1706 15.1227 47.1599 15.0907 47.1173 15.048C47.0959 14.984 47.0959 14.952 47.1173 14.952C47.1386 14.952 47.1493 14.9627 47.1493 14.984C47.1706 14.984 47.1919 14.984 47.2133 14.984L47.2773 14.888C47.2773 14.888 47.3093 14.8987 47.3733 14.92C47.4586 14.92 47.5226 14.8987 47.5653 14.856C47.6293 14.8347 47.6399 14.8027 47.5973 14.76C47.5759 14.7173 47.5439 14.6853 47.5013 14.664L47.7253 14.472C47.7466 14.4293 47.8319 14.3867 47.9813 14.344C48.3439 14.1093 48.6426 13.832 48.8773 13.512C49.1333 13.1707 49.4213 12.8613 49.7413 12.584H49.7733L50.1573 12.2L50.1253 12.104L50.5413 11.624H50.6053C50.6266 11.5813 50.6693 11.528 50.7333 11.464C50.8186 11.4 50.8719 11.3467 50.8933 11.304C50.9359 11.2827 51.0319 11.176 51.1813 10.984C51.3519 10.7707 51.5119 10.6 51.6613 10.472C51.8319 10.344 51.9279 10.28 51.9493 10.28C51.9706 10.28 51.9813 10.2907 51.9813 10.312C51.9813 10.376 51.9493 10.472 51.8853 10.6C51.8426 10.728 51.7999 10.8133 51.7573 10.856C51.6079 11.0907 51.4159 11.3573 51.1813 11.656C50.9466 11.9333 50.8079 12.104 50.7653 12.168C50.5093 12.4453 50.1999 12.8187 49.8373 13.288C49.4746 13.736 49.0799 14.184 48.6533 14.632C48.2266 15.08 47.7999 15.464 47.3733 15.784C46.9679 16.0827 46.5839 16.232 46.2213 16.232C45.8799 16.232 45.5173 16.1253 45.1333 15.912C44.7493 15.6987 44.5573 15.2933 44.5573 14.696C44.5573 14.504 44.5786 14.2907 44.6213 14.056C44.6853 13.8 44.7813 13.5333 44.9093 13.256C44.9093 13.256 44.9306 13.2347 44.9733 13.192C45.0159 13.128 45.0479 13.1067 45.0693 13.128C45.1119 13.064 45.1226 13 45.1013 12.936C45.1013 12.8507 45.1013 12.7973 45.1013 12.776L45.1653 12.712C45.2079 12.4773 45.3679 12.264 45.6453 12.072C45.9226 11.88 46.0719 11.7307 46.0933 11.624C46.1146 11.6027 46.1253 11.5707 46.1253 11.528L46.2533 11.112V10.984H46.3813L46.4773 10.856L46.5093 10.792C46.4666 10.7707 46.4773 10.7387 46.5413 10.696C46.6266 10.632 46.6693 10.6 46.6693 10.6C46.6906 10.5573 46.7119 10.5253 46.7333 10.504C46.7759 10.4827 46.8079 10.4613 46.8293 10.44H47.0533C47.0959 10.376 47.0746 10.344 46.9893 10.344C46.9039 10.344 46.8613 10.344 46.8613 10.344C46.8613 10.3227 46.8613 10.312 46.8613 10.312C46.8826 10.2907 46.8933 10.2693 46.8933 10.248L47.2453 9.96C47.3519 9.87467 47.4586 9.8 47.5653 9.736C47.6719 9.672 47.7679 9.59733 47.8533 9.512C47.9173 9.512 47.9279 9.544 47.8853 9.608C47.9066 9.65067 47.9279 9.65067 47.9493 9.608C47.9919 9.56533 48.0133 9.544 48.0133 9.544L48.1733 9.512V9.48C48.1733 9.43733 48.1839 9.37333 48.2053 9.288C48.2266 9.20267 48.2373 9.14933 48.2373 9.128C48.6853 8.78667 49.1546 8.488 49.6453 8.232C50.1359 7.95467 50.6159 7.816 51.0853 7.816C51.6399 7.816 52.1413 8.02933 52.5893 8.456L52.7493 8.552C52.7706 8.552 52.7813 8.54133 52.7813 8.52C52.8239 8.22133 53.0693 7.99733 53.5173 7.848C53.9866 7.69867 54.4026 7.624 54.7653 7.624C55.1493 7.624 55.3413 7.67733 55.3413 7.784C55.3413 7.82667 55.2773 7.90133 55.1493 8.008C55.0853 8.05067 54.9786 8.14667 54.8293 8.296C54.6799 8.44533 54.5306 8.62667 54.3813 8.84C54.3599 8.904 54.3279 8.968 54.2853 9.032C54.2426 9.096 54.1999 9.16 54.1573 9.224C54.1359 9.26667 54.1039 9.32 54.0613 9.384C54.0399 9.42667 54.0079 9.46933 53.9653 9.512C53.6026 10.1307 53.3146 10.6533 53.1013 11.08C52.8879 11.5067 52.6319 12.0507 52.3333 12.712C52.2906 12.84 52.2693 12.9147 52.2693 12.936C52.2693 13.1067 52.3653 13.192 52.5573 13.192C52.6853 13.192 52.8133 13.16 52.9413 13.096L53.2613 12.968C53.7733 12.4987 54.3066 12.104 54.8613 11.784C54.8826 11.784 54.8933 11.784 54.8933 11.784C54.9146 11.7627 54.9359 11.752 54.9573 11.752C55.0213 11.752 55.0639 11.7947 55.0853 11.88C55.1066 11.944 55.0853 11.9973 55.0213 12.04C54.4026 12.3813 53.8266 12.8187 53.2933 13.352C53.2719 13.3947 53.2506 13.4373 53.2293 13.48C53.2079 13.5227 53.1759 13.5653 53.1333 13.608C53.0693 13.6507 53.0053 13.7253 52.9413 13.832C52.8773 13.9387 52.8453 14.0027 52.8453 14.024C52.8239 14.088 52.7919 14.1093 52.7493 14.088C52.7279 14.0667 52.6639 14.0987 52.5573 14.184C52.5359 14.2053 52.5146 14.248 52.4933 14.312C52.4933 14.376 52.4826 14.4293 52.4613 14.472C52.4186 14.536 52.3759 14.5893 52.3333 14.632C52.2906 14.6533 52.2693 14.6747 52.2693 14.696C52.2479 14.7813 52.2053 14.8347 52.1413 14.856C52.0986 14.856 52.0559 14.8773 52.0133 14.92C51.9919 14.92 51.9813 14.9307 51.9813 14.952C51.9813 15.144 51.9599 15.2293 51.9173 15.208C51.8746 15.1867 51.8319 15.208 51.7893 15.272C51.7466 15.3573 51.6933 15.4 51.6293 15.4C51.5013 15.4427 51.4479 15.4747 51.4693 15.496C51.5119 15.5173 51.5439 15.5387 51.5653 15.56C51.6079 15.56 51.5759 15.592 51.4693 15.656C51.4266 15.6773 51.3839 15.7413 51.3413 15.848C51.2986 15.9333 51.2559 15.9973 51.2133 16.04C51.1493 16.0827 51.0853 16.1147 51.0213 16.136C50.9573 16.1573 50.9039 16.2 50.8613 16.264C50.6693 16.456 50.5093 16.552 50.3813 16.552ZM59.6438 6.472C59.5798 6.472 59.5158 6.45067 59.4518 6.408C59.4091 6.36533 59.3451 6.312 59.2598 6.248C59.2171 6.22667 59.1638 6.20533 59.0998 6.184C59.0571 6.14133 59.0358 6.07733 59.0358 5.992C59.0144 5.97067 58.9718 5.96 58.9078 5.96C58.8011 5.96 58.7478 5.88533 58.7478 5.736C58.7478 5.56533 58.8331 5.448 59.0038 5.384L59.1638 5.256V5.288L59.2918 5.128H59.3558C59.4838 5.128 59.5691 5.064 59.6118 4.936C59.6758 4.808 59.8038 4.72267 59.9958 4.68C60.1238 4.63733 60.2304 4.648 60.3158 4.712C60.4011 4.776 60.5078 4.808 60.6358 4.808C60.7638 4.808 60.9024 4.76533 61.0518 4.68L61.5318 4.584C61.5958 4.584 61.6278 4.60533 61.6278 4.648C61.6278 4.69067 61.5638 4.744 61.4358 4.808C61.3291 4.872 61.2544 4.92533 61.2118 4.968L61.1798 5L61.1478 5.064L61.0198 5.224C60.8918 5.37333 60.7424 5.55467 60.5718 5.768C60.4224 5.96 60.2624 6.12 60.0918 6.248C59.8998 6.39733 59.7504 6.472 59.6438 6.472ZM54.7798 16.552C54.6518 16.552 54.5878 16.4773 54.5878 16.328C54.5878 16.2213 54.6198 16.0933 54.6838 15.944C54.8544 15.5813 55.0464 15.0693 55.2598 14.408C55.4944 13.7467 55.7824 13.1813 56.1238 12.712C56.3584 12.2427 56.5718 11.784 56.7638 11.336C56.9771 10.8667 57.1798 10.3973 57.3718 9.928C57.3718 9.928 57.3504 9.91733 57.3078 9.896C57.2864 9.85333 57.2758 9.81067 57.2758 9.768C57.1478 9.68267 57.0091 9.56533 56.8598 9.416C56.7318 9.24533 56.7211 9.07467 56.8278 8.904C56.8704 8.86133 56.9024 8.84 56.9238 8.84C56.9451 8.84 56.9558 8.84 56.9558 8.84C56.9558 8.81867 56.9451 8.808 56.9238 8.808C56.9238 8.78667 56.9238 8.776 56.9238 8.776C56.9238 8.69067 56.9664 8.63733 57.0518 8.616C57.1371 8.59467 57.1798 8.56267 57.1798 8.52C57.2224 8.22133 57.4784 7.99733 57.9478 7.848C58.4171 7.69867 58.8331 7.624 59.1958 7.624C59.5584 7.624 59.7398 7.67733 59.7398 7.784C59.7398 7.82667 59.6758 7.90133 59.5478 8.008C59.4838 8.05067 59.3771 8.14667 59.2278 8.296C59.0784 8.44533 58.9398 8.62667 58.8118 8.84L58.5558 9.224C58.5344 9.26667 58.5024 9.32 58.4598 9.384C58.4384 9.42667 58.4064 9.46933 58.3638 9.512C58.0224 10.1307 57.7451 10.6533 57.5318 11.08C57.3184 11.5067 57.0624 12.0507 56.7638 12.712C56.7211 12.84 56.6998 12.9253 56.6998 12.968C56.6998 13.1173 56.7851 13.192 56.9558 13.192C57.0838 13.192 57.2118 13.16 57.3398 13.096L57.6598 12.968C58.1718 12.4987 58.7051 12.104 59.2598 11.784C59.2811 11.784 59.2918 11.784 59.2918 11.784C59.3131 11.7627 59.3344 11.752 59.3558 11.752C59.4198 11.752 59.4624 11.7947 59.4838 11.88C59.5051 11.944 59.4838 11.9973 59.4198 12.04C58.8011 12.3813 58.2251 12.8187 57.6918 13.352C57.6704 13.3947 57.6491 13.4373 57.6278 13.48C57.6064 13.5227 57.5744 13.5653 57.5318 13.608C57.4891 13.6507 57.4251 13.7253 57.3398 13.832C57.2758 13.9387 57.2438 14.0027 57.2438 14.024C57.2224 14.088 57.1904 14.1093 57.1478 14.088C57.1264 14.0667 57.0624 14.0987 56.9558 14.184C56.9344 14.2053 56.9131 14.248 56.8918 14.312C56.8918 14.376 56.8811 14.4293 56.8598 14.472C56.8384 14.536 56.7958 14.5893 56.7318 14.632C56.6891 14.6533 56.6678 14.6747 56.6678 14.696C56.6464 14.7813 56.6038 14.8347 56.5398 14.856C56.4971 14.856 56.4544 14.8773 56.4118 14.92C56.3904 14.9413 56.3904 14.9733 56.4118 15.016C56.4331 15.0587 56.4224 15.1013 56.3798 15.144C56.3584 15.208 56.3371 15.24 56.3158 15.24C56.2944 15.2187 56.2624 15.2293 56.2198 15.272C56.1344 15.3573 56.0704 15.4 56.0278 15.4C55.8998 15.4427 55.8464 15.4747 55.8678 15.496C55.9104 15.5173 55.9424 15.5387 55.9638 15.56C56.0064 15.56 55.9744 15.592 55.8678 15.656C55.8251 15.6773 55.7824 15.7413 55.7398 15.848C55.6971 15.9333 55.6544 15.9973 55.6118 16.04C55.5478 16.0827 55.4838 16.1147 55.4198 16.136C55.3771 16.1573 55.3238 16.2 55.2598 16.264C55.0678 16.456 54.9078 16.552 54.7798 16.552Z" fill="#FFCC00"/>
</g>
<defs>
<filter id="filter0_d_3_2" x="0" y="0" width="72.6278" height="35.76" filterUnits="userSpaceOnUse" color-interpolation-filters="sRGB">
<feFlood flood-opacity="0" result="BackgroundImageFix"/>
<feColorMatrix in="SourceAlpha" type="matrix" values="0 0 0 0 0 0 0 0 0 0 0 0 0 0 0 0 0 0 127 0" result="hardAlpha"/>
<feOffset dx="2" dy="8"/>
<feGaussianBlur stdDeviation="4.5"/>
<feComposite in2="hardAlpha" operator="out"/>
<feColorMatrix type="matrix" values="0 0 0 0 0 0 0 0 0 0 0 0 0 0 0 0 0 0 0.25 0"/>
<feBlend mode="normal" in2="BackgroundImageFix" result="effect1_dropShadow_3_2"/>
<feBlend mode="normal" in="SourceGraphic" in2="effect1_dropShadow_3_2" result="shape"/>
</filter>
</defs>
</svg>
