<svg width="66" height="36" viewBox="0 0 66 36" fill="none" xmlns="http://www.w3.org/2000/svg">
<g filter="url(#filter0_d_3_2)">
<path d="M14.808 18.76L14.52 18.664C14.4987 18.728 14.4453 18.7493 14.36 18.728C14.296 18.728 14.2427 18.7067 14.2 18.664C14.0933 18.4933 13.976 18.4187 13.848 18.44C13.72 18.4827 13.5493 18.4613 13.336 18.376H13.304C13.24 18.376 13.1653 18.3867 13.08 18.408C13.016 18.4507 12.952 18.4613 12.888 18.44L12.664 18.248C12.664 18.2693 12.6427 18.28 12.6 18.28C12.536 18.28 12.472 18.2693 12.408 18.248C12.344 18.2267 12.3227 18.2053 12.344 18.184L11.8 17.896L11.736 17.928L11.384 17.544C11.3627 17.5653 11.3413 17.576 11.32 17.576C11.2773 17.576 11.2347 17.544 11.192 17.48C11.1493 17.4373 11.1173 17.416 11.096 17.416C10.968 17.3093 10.8187 17.2027 10.648 17.096C10.4987 17.0107 10.3493 16.9147 10.2 16.808C10.1787 16.7867 10.168 16.744 10.168 16.68C10.168 16.6373 10.1467 16.6053 10.104 16.584C10.04 16.52 9.96533 16.456 9.88 16.392C9.79467 16.328 9.74133 16.2533 9.72 16.168L9.592 16.2C9.464 15.9653 9.31467 15.752 9.144 15.56C8.97333 15.368 8.89867 15.112 8.92 14.792H8.856L8.44 14.632V14.536C8.41867 14.536 8.38667 14.5467 8.344 14.568C8.30133 14.568 8.248 14.5573 8.184 14.536C8.03467 14.472 7.896 14.3973 7.768 14.312C7.64 14.2053 7.544 14.0773 7.48 13.928C7.45867 13.864 7.42667 13.832 7.384 13.832C7.36267 13.832 7.34133 13.8213 7.32 13.8C7.27733 13.6933 7.21333 13.5973 7.128 13.512C7.04267 13.4267 7.01067 13.32 7.032 13.192L7.128 12.392C7.29867 12.2 7.42667 12.104 7.512 12.104C7.59733 12.104 7.64 12.2 7.64 12.392L7.448 12.712L7.48 13.096C7.52267 13.1387 7.58667 13.16 7.672 13.16C7.75733 13.16 7.82133 13.1493 7.864 13.128L7.832 13.32L7.96 13.544L7.992 13.48L8.184 13.544L8.344 13.768C8.38667 13.6827 8.42933 13.6827 8.472 13.768C8.51467 13.832 8.536 13.864 8.536 13.864L8.696 13.736C8.67467 13.6293 8.65333 13.5227 8.632 13.416C8.61067 13.288 8.6 13.1707 8.6 13.064C8.6 12.9147 8.61067 12.808 8.632 12.744C8.696 12.5093 8.71733 12.328 8.696 12.2C8.696 12.2 8.73867 12.1253 8.824 11.976C8.90933 11.8053 8.99467 11.6987 9.08 11.656L9.336 11.496L9.4 11.592C9.37867 11.6133 9.336 11.6773 9.272 11.784C9.208 11.8907 9.15467 11.9653 9.112 12.008C8.94133 12.3707 8.87733 12.7333 8.92 13.096C8.92 13.1173 8.92 13.1493 8.92 13.192C8.94133 13.2133 8.94133 13.256 8.92 13.32V13.768C8.96267 13.7893 8.984 13.8747 8.984 14.024C8.984 14.152 9.00533 14.2053 9.048 14.184C9.15467 14.1627 9.24 14.1947 9.304 14.28C9.38933 14.344 9.45333 14.312 9.496 14.184L9.72 14.44H10.04C10.0187 14.4827 10.072 14.5253 10.2 14.568C10.3493 14.5893 10.4987 14.6 10.648 14.6C10.7973 14.6 10.872 14.6 10.872 14.6L11.064 14.76C11.064 14.7387 11.096 14.76 11.16 14.824H11.192C11.256 14.824 11.32 14.8027 11.384 14.76C11.4693 14.7173 11.5333 14.696 11.576 14.696C11.6827 14.7173 11.7893 14.76 11.896 14.824C12.024 14.888 12.12 14.888 12.184 14.824L12.44 14.92L12.728 14.76C12.7707 14.8027 12.856 14.8453 12.984 14.888C13.0267 14.9093 13.0907 14.92 13.176 14.92C13.368 14.92 13.5067 14.8773 13.592 14.792L13.72 14.952C14.0187 14.9307 14.3173 14.9307 14.616 14.952C14.936 14.952 15.2347 14.952 15.512 14.952C15.7467 14.952 15.9707 14.952 16.184 14.952C16.4187 14.9307 16.6427 14.9093 16.856 14.888C16.92 14.888 16.9733 14.888 17.016 14.888C17.0587 14.8667 17.0907 14.856 17.112 14.856C17.2613 14.856 17.432 14.8133 17.624 14.728C17.816 14.6427 17.976 14.6 18.104 14.6C18.1467 14.6 18.2427 14.568 18.392 14.504C18.5627 14.4187 18.616 14.472 18.552 14.664L18.232 14.824L18.136 14.792C18.1147 14.8133 18.0187 14.8667 17.848 14.952C17.6987 15.016 17.6133 15.0267 17.592 14.984L16.92 15.08C16.8347 15.1013 16.7067 15.1227 16.536 15.144C16.3653 15.1653 16.28 15.1653 16.28 15.144L15.992 15.208C15.992 15.1867 15.9707 15.176 15.928 15.176C15.8427 15.176 15.7147 15.208 15.544 15.272C15.3947 15.336 15.3093 15.3573 15.288 15.336C15.2667 15.2933 15.16 15.2933 14.968 15.336C14.7973 15.3573 14.6267 15.368 14.456 15.368C14.2 15.368 14.0613 15.3253 14.04 15.24L13.784 15.336C13.8267 15.2933 13.8053 15.272 13.72 15.272C13.656 15.2507 13.6027 15.2507 13.56 15.272L13.528 15.432C13.4853 15.4533 13.4427 15.4533 13.4 15.432C13.3573 15.4107 13.3147 15.3893 13.272 15.368C13.144 15.304 12.9413 15.272 12.664 15.272C12.3867 15.272 12.12 15.2613 11.864 15.24C11.608 15.2187 11.448 15.1653 11.384 15.08L11.128 15.208C11.0427 15.208 10.9147 15.1973 10.744 15.176C10.5947 15.1333 10.4773 15.1013 10.392 15.08C10.2427 15.0373 10.072 14.9947 9.88 14.952C9.70933 14.9093 9.53867 14.8987 9.368 14.92L9.528 15.176V15.24C9.67733 15.3253 9.79467 15.464 9.88 15.656C9.98667 15.8267 10.1467 15.8907 10.36 15.848L10.456 16.264L10.712 16.424C10.7333 16.4027 10.7547 16.392 10.776 16.392C10.84 16.392 10.9467 16.4347 11.096 16.52C11.2453 16.6053 11.3627 16.6693 11.448 16.712L11.544 16.648L11.704 16.936C11.7253 16.9147 11.7467 16.904 11.768 16.904C11.832 16.904 11.9067 16.9253 11.992 16.968C12.0773 17.0107 12.1307 17.0213 12.152 17L12.376 17.064L12.6 17C12.6853 17.128 12.7387 17.224 12.76 17.288C12.7813 17.352 12.8133 17.3947 12.856 17.416C12.9627 17.4587 12.9627 17.4907 12.856 17.512C12.7707 17.5333 12.728 17.5653 12.728 17.608L12.76 17.672H13.048C13.048 17.608 13.1227 17.5547 13.272 17.512C13.4427 17.4907 13.6133 17.48 13.784 17.48C14.04 17.48 14.1893 17.5013 14.232 17.544C14.3173 17.5867 14.3387 17.5867 14.296 17.544L14.584 17.512L14.776 17.672C14.8187 17.608 14.8613 17.576 14.904 17.576C14.968 17.576 15.0213 17.5867 15.064 17.608C15.128 17.6507 15.16 17.672 15.16 17.672C15.2027 17.6933 15.2453 17.6507 15.288 17.544C15.352 17.4587 15.4267 17.4267 15.512 17.448L15.64 17.48C15.7893 17.48 15.9387 17.4587 16.088 17.416C16.2587 17.3733 16.3547 17.416 16.376 17.544L16.6 17.384L16.76 17.416L16.696 17.672C16.696 17.7573 16.7067 17.8 16.728 17.8C16.7707 17.8 16.824 17.7253 16.888 17.576C16.9733 17.448 17.016 17.4373 17.016 17.544L17.24 17.288C17.304 17.3307 17.3893 17.352 17.496 17.352C17.6667 17.352 17.8267 17.288 17.976 17.16C18.1253 17.0533 18.3067 16.9787 18.52 16.936L18.552 17C18.5947 16.9787 18.6373 16.9573 18.68 16.936C18.744 16.936 18.776 16.9573 18.776 17L19.128 16.968C19.2133 16.904 19.352 16.8293 19.544 16.744C19.7573 16.6587 19.9067 16.5947 19.992 16.552L20.024 16.424C20.024 16.424 20.0773 16.424 20.184 16.424C20.312 16.4027 20.3867 16.3813 20.408 16.36V16.328C20.408 16.2853 20.408 16.2213 20.408 16.136C20.408 16.0293 20.4507 15.9867 20.536 16.008L20.696 16.104C20.888 16.04 21.016 15.9547 21.08 15.848C21.1653 15.72 21.2933 15.6027 21.464 15.496C21.528 15.4533 21.5813 15.4 21.624 15.336C21.688 15.272 21.7627 15.2293 21.848 15.208C21.8693 15.208 21.9013 15.24 21.944 15.304C22.008 15.368 22.072 15.3573 22.136 15.272L22.168 14.952L22.456 14.856L22.616 14.632C22.616 14.632 22.616 14.6427 22.616 14.664C22.6373 14.664 22.6587 14.664 22.68 14.664C22.7653 14.664 22.8613 14.5787 22.968 14.408C23.0747 14.2373 23.096 14.12 23.032 14.056L23.352 13.704C23.3307 13.576 23.3733 13.416 23.48 13.224C23.608 13.032 23.672 12.7973 23.672 12.52C23.672 12.3493 23.6187 12.1467 23.512 11.912C23.4053 11.6773 23.192 11.4213 22.872 11.144L22.712 11.048C22.456 10.8773 22.2213 10.7493 22.008 10.664C21.816 10.5573 21.56 10.4507 21.24 10.344C21.24 10.344 21.208 10.3227 21.144 10.28L20.248 10.024C20.1627 9.96 19.9707 9.90667 19.672 9.864C19.3733 9.82133 19.1707 9.78933 19.064 9.768C19.0213 9.74667 18.968 9.71467 18.904 9.672C18.8613 9.62933 18.8187 9.64 18.776 9.704L18.488 9.544C18.4453 9.56533 18.392 9.576 18.328 9.576C18.2853 9.576 18.2427 9.56533 18.2 9.544C18.1787 9.52267 18.1147 9.512 18.008 9.512C17.8587 9.49067 17.6133 9.42667 17.272 9.32C16.952 9.21333 16.7707 9.18133 16.728 9.224L15.896 8.808L15.8 8.84L15.512 8.68C15.576 8.76533 15.5333 8.78667 15.384 8.744C15.2347 8.68 15.064 8.60533 14.872 8.52C14.68 8.41333 14.5307 8.34933 14.424 8.328C14.0613 8.17867 13.7307 7.96533 13.432 7.688C13.1547 7.41067 13.016 7.06933 13.016 6.664C13.016 6.30133 13.0373 6.04533 13.08 5.896C13.1227 5.74667 13.176 5.61867 13.24 5.512C13.3253 5.40533 13.4 5.24533 13.464 5.032C13.5067 4.968 13.56 4.904 13.624 4.84C13.7093 4.75467 13.7627 4.66933 13.784 4.584L14.04 4.424C14.0613 4.31733 14.1147 4.21067 14.2 4.104C14.3067 3.99733 14.4027 3.92267 14.488 3.88C14.7653 3.752 15.0747 3.53867 15.416 3.24C15.7787 2.92 16.1307 2.68533 16.472 2.536C16.5573 2.49333 16.632 2.46133 16.696 2.44C16.76 2.39733 16.8347 2.36533 16.92 2.344L16.952 2.408C17.144 2.344 17.464 2.248 17.912 2.12C18.36 1.97067 18.8507 1.82133 19.384 1.672C19.9387 1.52267 20.4507 1.39467 20.92 1.288C21.4107 1.18133 21.7947 1.128 22.072 1.128C22.264 1.128 22.3707 1.16 22.392 1.224L22.776 1C22.7973 1.02133 22.84 1.04267 22.904 1.064C22.968 1.064 23.0107 1.05333 23.032 1.032L23.352 1.128C23.4373 1.08533 23.5013 1.064 23.544 1.064C23.672 1.064 23.8107 1.10667 23.96 1.192C24.1307 1.256 24.2587 1.27733 24.344 1.256C24.4507 1.21333 24.5253 1.20267 24.568 1.224C24.632 1.224 24.696 1.224 24.76 1.224H24.888C24.952 1.224 25.016 1.23467 25.08 1.256C25.1653 1.256 25.2507 1.29867 25.336 1.384L25.496 1.416C25.56 1.48 25.592 1.55467 25.592 1.64C25.6347 1.72533 25.7627 1.77867 25.976 1.8C26.1893 1.82133 26.328 1.864 26.392 1.928C26.5627 2.056 26.6587 2.26933 26.68 2.568C26.7227 2.84533 26.744 3.10133 26.744 3.336C26.7227 3.57067 26.6267 3.85867 26.456 4.2C26.3067 4.52 26.1147 4.776 25.88 4.968C25.7733 5.05333 25.6133 5.14933 25.4 5.256C25.1867 5.34133 25.0267 5.416 24.92 5.48C24.6853 5.62933 24.4293 5.704 24.152 5.704C23.7467 5.704 23.544 5.61867 23.544 5.448C23.544 5.384 23.6187 5.32 23.768 5.256C23.8747 5.21333 23.9707 5.17067 24.056 5.128C24.1627 5.064 24.2587 4.98933 24.344 4.904C24.4293 4.86133 24.4827 4.84 24.504 4.84C24.5467 4.81867 24.5787 4.79733 24.6 4.776C24.6427 4.75467 24.6747 4.73333 24.696 4.712C24.7173 4.66933 24.76 4.62667 24.824 4.584C24.952 4.47733 25.112 4.30667 25.304 4.072C25.5173 3.816 25.6667 3.624 25.752 3.496C25.7733 3.38933 25.816 3.25067 25.88 3.08C25.9653 2.888 26.008 2.71733 26.008 2.568C26.008 2.44 25.976 2.344 25.912 2.28C25.8907 2.28 25.88 2.26933 25.88 2.248L25.848 2.184C25.6773 1.82133 25.336 1.61867 24.824 1.576C24.3333 1.512 23.9173 1.48 23.576 1.48C23.576 1.48 23.5547 1.46933 23.512 1.448C23.4693 1.42667 23.448 1.43733 23.448 1.48L22.744 1.544L22.68 1.48L22.008 1.608L21.944 1.576L21.24 1.768C21.2613 1.72533 21.2507 1.71467 21.208 1.736C21.1653 1.736 21.144 1.736 21.144 1.736L20.44 1.928L20.408 1.896L20.088 2.088C20.088 2.06667 20.0773 2.04533 20.056 2.024C20.0347 2.00267 20.024 1.992 20.024 1.992C20.0027 2.01333 19.9813 2.04533 19.96 2.088C19.9387 2.10933 19.9067 2.13067 19.864 2.152L19.8 2.12L19.352 2.28C19.352 2.30133 19.3093 2.312 19.224 2.312C18.648 2.568 18.0187 2.86667 17.336 3.208C16.6747 3.528 16.1627 3.98667 15.8 4.584L15.736 4.52L15.448 4.776C15.4267 4.79733 15.3947 4.82933 15.352 4.872C15.3307 4.91467 15.2987 4.98933 15.256 5.096C15.192 5.26667 15.096 5.46933 14.968 5.704C14.8613 5.93867 14.808 6.16267 14.808 6.376C14.808 6.58933 14.8507 6.792 14.936 6.984C15.0213 7.15467 15.0853 7.19733 15.128 7.112L15.416 7.304L15.512 7.656L15.576 7.624L15.992 7.944H16.056L16.568 8.36L16.952 8.584H17.208L17.592 8.712C17.6347 8.73333 17.6667 8.76533 17.688 8.808C17.7307 8.82933 17.784 8.808 17.848 8.744L18.168 8.968C18.1893 8.94667 18.2213 8.936 18.264 8.936C18.3067 8.936 18.3493 8.95733 18.392 9C18.4347 9.02133 18.4667 9.04267 18.488 9.064L18.552 9.032L19.672 9.48C19.7147 9.45867 19.768 9.448 19.832 9.448C19.9387 9.448 20.024 9.46933 20.088 9.512C20.1733 9.53333 20.2587 9.55467 20.344 9.576C20.3867 9.59733 20.44 9.62933 20.504 9.672C20.5893 9.71467 20.632 9.74667 20.632 9.768C20.6747 9.78933 20.7173 9.8 20.76 9.8C20.824 9.8 20.8773 9.8 20.92 9.8L21.208 9.896L21.496 10.056L21.784 10.088C21.784 10.088 21.8693 10.1307 22.04 10.216C22.232 10.28 22.424 10.344 22.616 10.408C22.8293 10.472 22.9467 10.5147 22.968 10.536L23.16 10.728L23.192 10.696L23.416 10.824C23.6507 10.9733 23.8853 11.2613 24.12 11.688C24.376 12.0933 24.504 12.5413 24.504 13.032C24.504 13.352 24.4507 13.672 24.344 13.992C24.2587 14.2907 24.152 14.536 24.024 14.728C23.704 15.1547 23.352 15.5387 22.968 15.88C22.6053 16.2213 22.2747 16.5093 21.976 16.744C21.8693 16.808 21.7947 16.8613 21.752 16.904C21.7093 16.9467 21.6453 16.968 21.56 16.968C21.496 16.9893 21.4427 17.0213 21.4 17.064C21.1013 17.2347 20.7707 17.384 20.408 17.512C20.0453 17.6613 19.7253 17.8 19.448 17.928C19.32 17.9707 19.2133 17.992 19.128 17.992C19.0427 18.0133 18.9573 18.0347 18.872 18.056C18.8507 18.056 18.808 18.0667 18.744 18.088C18.7013 18.1307 18.68 18.1413 18.68 18.12L18.456 18.28C18.4347 18.2587 18.4027 18.248 18.36 18.248C18.2747 18.248 18.1787 18.2907 18.072 18.376C17.9867 18.4613 17.9013 18.4933 17.816 18.472H17.784C17.72 18.472 17.6347 18.4827 17.528 18.504C17.4427 18.5467 17.3787 18.5467 17.336 18.504L16.92 18.664L16.856 18.504C16.8347 18.504 16.8027 18.5253 16.76 18.568C16.7387 18.632 16.7067 18.664 16.664 18.664C16.664 18.664 16.6213 18.6427 16.536 18.6C16.4507 18.5573 16.3867 18.5787 16.344 18.664L15.992 18.76C15.9707 18.6747 15.9067 18.632 15.8 18.632C15.7147 18.632 15.64 18.664 15.576 18.728L15.32 18.6V18.632L15.064 18.6L14.808 18.76Z" fill="#BE177B"/>
<path d="M30.55 6.472C30.486 6.472 30.422 6.45067 30.358 6.408C30.3153 6.36533 30.2513 6.312 30.166 6.248C30.1233 6.22667 30.07 6.20533 30.006 6.184C29.9633 6.14133 29.942 6.07733 29.942 5.992C29.9207 5.97067 29.878 5.96 29.814 5.96C29.7073 5.96 29.654 5.88533 29.654 5.736C29.654 5.56533 29.7393 5.448 29.91 5.384L30.07 5.256V5.288L30.198 5.128H30.262C30.39 5.128 30.4753 5.064 30.518 4.936C30.582 4.808 30.71 4.72267 30.902 4.68C31.03 4.63733 31.1367 4.648 31.222 4.712C31.3073 4.776 31.414 4.808 31.542 4.808C31.67 4.808 31.8087 4.76533 31.958 4.68L32.438 4.584C32.502 4.584 32.534 4.60533 32.534 4.648C32.534 4.69067 32.47 4.744 32.342 4.808C32.2353 4.872 32.1607 4.92533 32.118 4.968L32.086 5L32.054 5.064L31.926 5.224C31.798 5.37333 31.6487 5.55467 31.478 5.768C31.3287 5.96 31.1687 6.12 30.998 6.248C30.806 6.39733 30.6567 6.472 30.55 6.472ZM25.686 16.552C25.558 16.552 25.494 16.4773 25.494 16.328C25.494 16.2213 25.526 16.0933 25.59 15.944C25.7607 15.5813 25.9527 15.0693 26.166 14.408C26.4007 13.7467 26.6887 13.1813 27.03 12.712C27.2647 12.2427 27.478 11.784 27.67 11.336C27.8833 10.8667 28.086 10.3973 28.278 9.928C28.278 9.928 28.2567 9.91733 28.214 9.896C28.1927 9.85333 28.182 9.81067 28.182 9.768C28.054 9.68267 27.9153 9.56533 27.766 9.416C27.638 9.24533 27.6273 9.07467 27.734 8.904C27.7767 8.86133 27.8087 8.84 27.83 8.84C27.8513 8.84 27.862 8.84 27.862 8.84C27.862 8.81867 27.8513 8.808 27.83 8.808C27.83 8.78667 27.83 8.776 27.83 8.776C27.83 8.69067 27.8727 8.63733 27.958 8.616C28.0433 8.59467 28.086 8.56267 28.086 8.52C28.1287 8.22133 28.3847 7.99733 28.854 7.848C29.3233 7.69867 29.7393 7.624 30.102 7.624C30.4647 7.624 30.646 7.67733 30.646 7.784C30.646 7.82667 30.582 7.90133 30.454 8.008C30.39 8.05067 30.2833 8.14667 30.134 8.296C29.9847 8.44533 29.846 8.62667 29.718 8.84L29.462 9.224C29.4407 9.26667 29.4087 9.32 29.366 9.384C29.3447 9.42667 29.3127 9.46933 29.27 9.512C28.9287 10.1307 28.6513 10.6533 28.438 11.08C28.2247 11.5067 27.9687 12.0507 27.67 12.712C27.6273 12.84 27.606 12.9253 27.606 12.968C27.606 13.1173 27.6913 13.192 27.862 13.192C27.99 13.192 28.118 13.16 28.246 13.096L28.566 12.968C29.078 12.4987 29.6113 12.104 30.166 11.784C30.1873 11.784 30.198 11.784 30.198 11.784C30.2193 11.7627 30.2407 11.752 30.262 11.752C30.326 11.752 30.3687 11.7947 30.39 11.88C30.4113 11.944 30.39 11.9973 30.326 12.04C29.7073 12.3813 29.1313 12.8187 28.598 13.352C28.5767 13.3947 28.5553 13.4373 28.534 13.48C28.5127 13.5227 28.4807 13.5653 28.438 13.608C28.3953 13.6507 28.3313 13.7253 28.246 13.832C28.182 13.9387 28.15 14.0027 28.15 14.024C28.1287 14.088 28.0967 14.1093 28.054 14.088C28.0327 14.0667 27.9687 14.0987 27.862 14.184C27.8407 14.2053 27.8193 14.248 27.798 14.312C27.798 14.376 27.7873 14.4293 27.766 14.472C27.7447 14.536 27.702 14.5893 27.638 14.632C27.5953 14.6533 27.574 14.6747 27.574 14.696C27.5527 14.7813 27.51 14.8347 27.446 14.856C27.4033 14.856 27.3607 14.8773 27.318 14.92C27.2967 14.9413 27.2967 14.9733 27.318 15.016C27.3393 15.0587 27.3287 15.1013 27.286 15.144C27.2647 15.208 27.2433 15.24 27.222 15.24C27.2007 15.2187 27.1687 15.2293 27.126 15.272C27.0407 15.3573 26.9767 15.4 26.934 15.4C26.806 15.4427 26.7527 15.4747 26.774 15.496C26.8167 15.5173 26.8487 15.5387 26.87 15.56C26.9127 15.56 26.8807 15.592 26.774 15.656C26.7313 15.6773 26.6887 15.7413 26.646 15.848C26.6033 15.9333 26.5607 15.9973 26.518 16.04C26.454 16.0827 26.39 16.1147 26.326 16.136C26.2833 16.1573 26.23 16.2 26.166 16.264C25.974 16.456 25.814 16.552 25.686 16.552Z" fill="#5C0861"/>
<path d="M32.1178 16.552C31.9898 16.552 31.9258 16.4773 31.9258 16.328C31.9258 16.2213 31.9578 16.0933 32.0218 15.944C32.1924 15.5813 32.3844 15.0693 32.5978 14.408C32.8324 13.7467 33.1204 13.1813 33.4618 12.712L35.0618 9.416C34.9338 9.416 34.8058 9.448 34.6778 9.512C34.5711 9.576 34.5178 9.62933 34.5178 9.672C34.5178 9.75733 34.4004 9.84267 34.1658 9.928C33.9311 10.0133 33.8031 10.0667 33.7818 10.088C33.4618 10.1733 33.1631 10.2693 32.8858 10.376C32.6724 10.6107 32.4591 10.8453 32.2458 11.08C32.0538 11.3147 31.8724 11.5493 31.7018 11.784C31.6804 11.8053 31.6591 11.816 31.6378 11.816C31.4458 12.0293 31.2858 12.1893 31.1578 12.296C31.0298 12.4027 30.8911 12.4987 30.7418 12.584C30.6564 12.648 30.5711 12.6693 30.4858 12.648C30.3791 12.6053 30.3684 12.5627 30.4538 12.52C30.5604 12.4773 30.7311 12.328 30.9658 12.072C31.2004 11.816 31.3818 11.624 31.5098 11.496C31.6164 11.432 31.6484 11.432 31.6058 11.496C31.5844 11.56 31.6164 11.5493 31.7018 11.464L32.5018 10.44L32.5338 10.408C32.4271 10.344 32.3738 10.1733 32.3738 9.896C32.3738 9.68267 32.4164 9.512 32.5018 9.384C32.5018 9.36267 32.5231 9.352 32.5658 9.352L33.2378 9.16C33.3018 9.16 33.3444 9.14933 33.3658 9.128C33.4084 9.08533 33.4511 9.032 33.4938 8.968C33.5578 8.88267 33.6324 8.776 33.7178 8.648L34.1018 8.136L34.3578 7.784C34.3578 7.72 34.4004 7.64533 34.4858 7.56C34.5924 7.45333 34.6778 7.37867 34.7418 7.336C34.8271 7.208 34.8804 7.112 34.9018 7.048C34.9444 6.96267 35.0084 6.856 35.0938 6.728C35.0938 6.70667 35.1258 6.696 35.1898 6.696C35.2538 6.67467 35.2858 6.65333 35.2858 6.632C35.3071 6.41867 35.3391 6.32267 35.3818 6.344C35.4458 6.344 35.4778 6.312 35.4778 6.248C35.4778 6.184 35.5204 6.13067 35.6058 6.088L35.7658 5.896C35.7658 5.87467 35.7978 5.832 35.8618 5.768V5.736C35.8618 5.69333 35.8618 5.64 35.8618 5.576C35.8618 5.512 35.8831 5.448 35.9258 5.384C35.9684 5.34133 36.0004 5.32 36.0218 5.32C36.0431 5.32 36.0538 5.32 36.0538 5.32C36.0538 5.29867 36.0431 5.288 36.0218 5.288C36.0218 5.26667 36.0218 5.256 36.0218 5.256C36.0218 5.17067 36.0644 5.11733 36.1498 5.096C36.2351 5.07467 36.2778 5.04267 36.2778 5C36.3204 4.70133 36.5764 4.47733 37.0458 4.328C37.5151 4.17867 37.9311 4.104 38.2938 4.104C38.6564 4.104 38.8378 4.15733 38.8378 4.264C38.8378 4.30667 38.7738 4.38133 38.6458 4.488C38.5818 4.50933 38.4751 4.60533 38.3258 4.776C38.1764 4.92533 38.0378 5.10667 37.9098 5.32L37.6538 5.704C37.6324 5.74667 37.6004 5.8 37.5578 5.864C37.5364 5.90667 37.5044 5.94933 37.4618 5.992C37.3124 6.248 37.1098 6.61067 36.8538 7.08C36.6191 7.528 36.3631 8.02933 36.0858 8.584L36.9178 8.488C36.9818 8.488 37.0031 8.49867 36.9818 8.52C36.9818 8.54133 37.0138 8.54133 37.0778 8.52C37.1844 8.52 37.2591 8.50933 37.3018 8.488C37.3444 8.44533 37.4191 8.41333 37.5258 8.392C37.6964 8.37067 37.8884 8.36 38.1018 8.36C38.3364 8.33867 38.5178 8.328 38.6458 8.328C38.7311 8.328 38.8378 8.328 38.9658 8.328C39.0938 8.328 39.1898 8.33867 39.2538 8.36C39.2964 8.36 39.3071 8.38133 39.2858 8.424C39.2858 8.44533 39.2964 8.456 39.3178 8.456C39.3604 8.456 39.3924 8.44533 39.4138 8.424C39.4564 8.40267 39.4991 8.392 39.5418 8.392C39.5631 8.37067 39.5951 8.37067 39.6378 8.392C39.7018 8.392 39.7444 8.392 39.7658 8.392L40.0858 8.488C40.2138 8.50933 40.2778 8.584 40.2778 8.712C40.2991 8.84 40.2458 8.88267 40.1178 8.84C40.0324 8.79733 39.9578 8.776 39.8938 8.776H39.0938C38.9444 8.776 38.8058 8.776 38.6778 8.776C38.5498 8.776 38.4218 8.78667 38.2938 8.808C38.2511 8.82933 38.2298 8.808 38.2298 8.744C38.2511 8.68 38.2404 8.648 38.1978 8.648C38.1764 8.648 38.1444 8.68 38.1018 8.744C38.0591 8.78667 38.0271 8.808 38.0058 8.808L37.8458 8.904C37.5044 8.98933 37.1418 9.08533 36.7578 9.192C36.3738 9.27733 36.0004 9.37333 35.6378 9.48C35.3178 10.1413 35.0084 10.7707 34.7098 11.368C34.4324 11.944 34.2191 12.392 34.0698 12.712C34.0271 12.84 34.0058 12.9147 34.0058 12.936C34.0058 13.1067 34.1018 13.192 34.2938 13.192C34.4218 13.192 34.5498 13.16 34.6778 13.096L34.9978 12.968C35.5098 12.4987 36.0431 12.104 36.5978 11.784C36.6191 11.784 36.6298 11.784 36.6298 11.784C36.6511 11.7627 36.6724 11.752 36.6938 11.752C36.7578 11.752 36.8004 11.7947 36.8218 11.88C36.8431 11.944 36.8218 11.9973 36.7578 12.04C36.1391 12.3813 35.5631 12.8187 35.0298 13.352C35.0084 13.3947 34.9871 13.4373 34.9658 13.48C34.9444 13.5227 34.9124 13.5653 34.8698 13.608C34.8271 13.6507 34.7631 13.7253 34.6778 13.832C34.6138 13.9387 34.5818 14.0027 34.5818 14.024C34.5604 14.088 34.5284 14.1093 34.4858 14.088C34.4644 14.0667 34.4004 14.0987 34.2938 14.184C34.2724 14.2053 34.2511 14.248 34.2298 14.312C34.2298 14.376 34.2191 14.4293 34.1978 14.472C34.1551 14.536 34.1124 14.5893 34.0698 14.632C34.0271 14.6533 34.0058 14.6747 34.0058 14.696C33.9844 14.7813 33.9418 14.8347 33.8778 14.856C33.8351 14.856 33.7924 14.8773 33.7498 14.92C33.7284 14.92 33.7178 14.9307 33.7178 14.952C33.7178 15.144 33.6964 15.2293 33.6538 15.208C33.6111 15.1867 33.5791 15.208 33.5578 15.272C33.4724 15.3573 33.4084 15.4 33.3658 15.4C33.2378 15.4427 33.1844 15.4747 33.2058 15.496C33.2484 15.5173 33.2804 15.5387 33.3018 15.56C33.3444 15.56 33.3124 15.592 33.2058 15.656C33.1631 15.6773 33.1204 15.7413 33.0778 15.848C33.0351 15.9333 32.9924 15.9973 32.9498 16.04C32.8858 16.0827 32.8218 16.1147 32.7578 16.136C32.6938 16.1573 32.6404 16.2 32.5978 16.264C32.4058 16.456 32.2458 16.552 32.1178 16.552ZM33.9418 9.032C34.0271 9.01067 34.1018 8.98933 34.1658 8.968C34.2511 8.94667 34.3364 8.91467 34.4218 8.872L35.3818 8.712C35.6378 8.2 35.8618 7.74133 36.0538 7.336C36.2458 6.90933 36.3844 6.6 36.4698 6.408C36.4698 6.408 36.4484 6.39733 36.4058 6.376C36.3844 6.33333 36.3738 6.29067 36.3738 6.248C36.3311 6.22667 36.2778 6.19467 36.2138 6.152C36.1711 6.10933 36.1284 6.07733 36.0858 6.056L35.7978 6.344L35.4458 6.824C35.4458 6.84533 35.4138 6.86667 35.3498 6.888C35.3071 6.888 35.2858 6.89867 35.2858 6.92C35.2858 6.984 35.2538 7.048 35.1898 7.112C35.1471 7.176 35.1044 7.19733 35.0618 7.176L34.9338 7.496C34.9338 7.56 34.9018 7.61333 34.8378 7.656L34.6138 7.944C34.6138 7.96533 34.6031 7.98667 34.5818 8.008C34.5818 8.008 34.5818 8.02933 34.5818 8.072C34.5604 8.11467 34.5284 8.168 34.4858 8.232C34.4431 8.296 34.3898 8.36 34.3258 8.424C34.3044 8.424 34.2938 8.43467 34.2938 8.456C34.2938 8.456 34.2831 8.456 34.2618 8.456L34.1658 8.648C34.0804 8.69067 34.0271 8.712 34.0058 8.712L33.9738 8.776C33.9738 8.904 33.9631 8.98933 33.9418 9.032Z" fill="#5AE6DF"/>
<path d="M40.0078 16.52C39.4744 16.52 39.0051 16.3707 38.5998 16.072C38.1944 15.7733 37.9918 15.2613 37.9918 14.536C37.9918 14.2587 38.0238 13.9813 38.0878 13.704C38.1518 13.4053 38.2264 13.1173 38.3118 12.84C38.3544 12.5627 38.4184 12.3173 38.5038 12.104C38.5251 12.0187 38.5358 11.976 38.5358 11.976C38.5571 11.9547 38.6104 11.9227 38.6958 11.88L38.9518 11.496V11.368C38.9304 11.368 38.9198 11.368 38.9198 11.368C38.9198 11.3467 38.9198 11.336 38.9198 11.336C38.9198 11.272 38.9731 11.1973 39.0798 11.112C39.1864 11.0267 39.2398 10.984 39.2398 10.984C39.2611 10.8773 39.2931 10.824 39.3358 10.824C39.3784 10.824 39.4318 10.792 39.4958 10.728H39.8478V10.664C39.8478 10.5573 39.7944 10.5147 39.6878 10.536C39.6024 10.536 39.5598 10.5253 39.5598 10.504C39.5598 10.4827 39.5918 10.44 39.6558 10.376C39.7411 10.2907 39.7944 10.2373 39.8158 10.216C39.8798 10.1307 39.9331 10.056 39.9758 9.992C40.0184 9.90667 40.0824 9.84267 40.1678 9.8C40.5518 9.33067 40.7864 9.032 40.8718 8.904C40.9784 8.776 41.0851 8.68 41.1918 8.616C41.2344 8.616 41.2664 8.63733 41.2878 8.68C41.3304 8.70133 41.3304 8.73333 41.2878 8.776C41.3304 8.84 41.3624 8.85067 41.3838 8.808C41.4264 8.76533 41.4478 8.744 41.4478 8.744L41.5758 8.68C41.5331 8.63733 41.5118 8.584 41.5118 8.52C41.5118 8.41333 41.5331 8.328 41.5758 8.264C41.6184 8.17867 41.6931 8.09333 41.7998 8.008C41.9278 7.92267 41.9918 7.86933 41.9918 7.848C42.1198 7.80533 42.2158 7.76267 42.2798 7.72C42.3651 7.67733 42.4504 7.656 42.5358 7.656C42.6851 7.656 42.8344 7.70933 42.9838 7.816C43.3891 8.02933 43.7304 8.24267 44.0078 8.456C44.2851 8.66933 44.4238 8.968 44.4238 9.352C44.4238 9.75733 44.2531 10.1093 43.9118 10.408C43.5918 10.6853 43.1971 10.92 42.7278 11.112C42.2584 11.304 41.7891 11.464 41.3198 11.592C40.8718 11.6987 40.5198 11.784 40.2638 11.848C40.1144 11.8693 40.0398 11.9333 40.0398 12.04C40.0611 12.1253 40.0504 12.2213 40.0078 12.328L39.7838 12.68L39.5918 13.128L39.4318 13.416C39.2824 13.544 39.2291 13.64 39.2718 13.704C39.3144 13.768 39.3891 13.7573 39.4958 13.672C39.5171 13.6933 39.5278 13.7253 39.5278 13.768C39.5278 13.8533 39.5064 13.96 39.4638 14.088C39.4211 14.1947 39.3891 14.28 39.3678 14.344C39.3464 14.4293 39.3464 14.472 39.3678 14.472C39.4104 14.4507 39.4318 14.4933 39.4318 14.6L39.4638 15.048C39.5918 15.4533 39.8798 15.688 40.3278 15.752C40.3704 15.752 40.4131 15.7627 40.4558 15.784C40.5198 15.784 40.5731 15.784 40.6158 15.784C40.9998 15.784 41.2024 15.752 41.2238 15.688C41.2664 15.624 41.3198 15.5813 41.3838 15.56C41.5758 15.5173 41.7358 15.4747 41.8638 15.432C42.0131 15.3893 42.1624 15.3253 42.3118 15.24C42.5678 15.1333 42.8131 14.9947 43.0478 14.824C43.2824 14.6533 43.5278 14.4827 43.7838 14.312L44.1038 14.088C44.1251 14.0453 44.1251 14.0133 44.1038 13.992C44.0824 13.9707 44.0824 13.9493 44.1038 13.928C44.1464 13.9067 44.1784 13.9067 44.1998 13.928C44.2424 13.928 44.2744 13.9173 44.2958 13.896C44.3384 13.8747 44.3811 13.8427 44.4238 13.8C44.4664 13.736 44.5091 13.6827 44.5518 13.64C44.5944 13.5973 44.6158 13.5547 44.6158 13.512C44.6371 13.4693 44.6691 13.4267 44.7118 13.384C44.8824 13.2133 45.0531 13.032 45.2238 12.84C45.4158 12.648 45.5758 12.4773 45.7038 12.328C45.8531 12.1147 45.9704 12.008 46.0558 12.008C46.0984 12.008 46.1198 12.0293 46.1198 12.072C46.1198 12.1787 46.0451 12.3387 45.8958 12.552C45.5331 13.0853 45.1171 13.608 44.6478 14.12C44.1784 14.6107 43.6664 15.0587 43.1118 15.464C42.7064 15.7413 42.2264 15.9867 41.6718 16.2C41.1171 16.4133 40.5624 16.52 40.0078 16.52ZM40.4878 11.368C40.8078 11.3467 41.2238 11.2613 41.7358 11.112C42.2478 10.9413 42.6744 10.7173 43.0158 10.44C43.3784 10.1413 43.5598 9.81067 43.5598 9.448C43.5598 9.10667 43.3784 8.776 43.0158 8.456C42.7171 8.66933 42.3864 8.97867 42.0238 9.384C41.6824 9.768 41.3731 10.152 41.0958 10.536C40.8184 10.8987 40.6158 11.176 40.4878 11.368Z" fill="#FF2600"/>
<path d="M48.0935 16.584C48.0722 16.584 48.0402 16.5627 47.9975 16.52C47.9548 16.4987 47.9228 16.488 47.9015 16.488C47.8162 16.5093 47.7415 16.52 47.6775 16.52C47.6135 16.52 47.5495 16.52 47.4855 16.52C47.4642 16.52 47.4428 16.5093 47.4215 16.488C47.4215 16.4667 47.4108 16.456 47.3895 16.456C47.3682 16.456 47.3575 16.456 47.3575 16.456C47.3788 16.4773 47.3788 16.488 47.3575 16.488C47.3575 16.488 47.3362 16.4773 47.2935 16.456C47.2508 16.4347 47.2188 16.424 47.1975 16.424L47.1655 16.392C47.1228 16.392 47.0908 16.3813 47.0695 16.36C47.0695 16.3387 47.0588 16.328 47.0375 16.328L47.0055 16.36L46.9735 16.328C46.9308 16.3067 46.8668 16.2853 46.7815 16.264C46.7175 16.2213 46.6642 16.1893 46.6215 16.168C46.5788 16.168 46.5255 16.136 46.4615 16.072H46.3975C46.3548 16.008 46.2802 15.9653 46.1735 15.944C46.1735 15.9227 46.1628 15.9013 46.1415 15.88H46.1095C46.0668 15.816 46.0348 15.7947 46.0135 15.816C45.9922 15.7733 45.9602 15.7413 45.9175 15.72C45.8962 15.6773 45.8642 15.6453 45.8215 15.624C45.8215 15.5387 45.8002 15.496 45.7575 15.496C45.7575 15.4533 45.7148 15.3893 45.6295 15.304C45.5655 15.2187 45.5228 15.144 45.5015 15.08L45.4695 15.048C45.3842 14.9627 45.3202 14.824 45.2775 14.632C45.2562 14.5467 45.2348 14.5147 45.2135 14.536C45.2135 14.5573 45.2028 14.504 45.1815 14.376C45.1815 14.3547 45.1815 14.3227 45.1815 14.28C45.2028 14.216 45.2028 14.1733 45.1815 14.152C45.1815 14.1307 45.1708 14.12 45.1495 14.12C45.1495 14.0987 45.1495 14.0773 45.1495 14.056C45.1282 14.0347 45.1175 14.024 45.1175 14.024C45.1388 14.0027 45.1495 13.992 45.1495 13.992C45.1495 13.9493 45.1388 13.928 45.1175 13.928C45.1175 13.9067 45.1175 13.8853 45.1175 13.864V13.8C45.1175 13.6933 45.1388 13.6187 45.1815 13.576C45.1815 13.5333 45.1922 13.5013 45.2135 13.48C45.2348 13.4587 45.2455 13.4373 45.2455 13.416C45.2455 13.3733 45.2668 13.352 45.3095 13.352C45.3522 13.352 45.3735 13.3413 45.3735 13.32C45.3735 13.2773 45.3842 13.256 45.4055 13.256C45.4482 13.2347 45.4802 13.2133 45.5015 13.192C45.5015 13.1707 45.5122 13.1493 45.5335 13.128C45.5762 13.1067 45.5975 13.0853 45.5975 13.064C45.7042 13 45.8215 12.968 45.9495 12.968C46.2055 12.968 46.3335 13.032 46.3335 13.16C46.3335 13.2027 46.2695 13.2773 46.1415 13.384C46.1202 13.448 46.1095 13.4907 46.1095 13.512C46.1308 13.512 46.1202 13.5333 46.0775 13.576C46.0988 13.64 46.1095 13.7253 46.1095 13.832C46.0882 13.832 46.0775 13.864 46.0775 13.928C46.0988 13.9707 46.1095 13.992 46.1095 13.992C46.1095 14.0133 46.1202 14.0773 46.1415 14.184C46.1842 14.2907 46.2162 14.3547 46.2375 14.376C46.2375 14.376 46.2588 14.4293 46.3015 14.536C46.3442 14.6213 46.3655 14.6747 46.3655 14.696V14.76C46.4082 14.824 46.4295 14.8667 46.4295 14.888C46.4508 14.888 46.5362 14.9307 46.6855 15.016C46.7068 15.0373 46.7495 15.048 46.8135 15.048C46.9202 15.112 46.9948 15.1653 47.0375 15.208C47.1015 15.2507 47.2508 15.2933 47.4855 15.336C47.5708 15.3573 47.6028 15.3787 47.5815 15.4C47.5815 15.4 47.6242 15.4 47.7095 15.4C47.7095 15.4 47.7095 15.4107 47.7095 15.432C47.7095 15.432 47.7202 15.432 47.7415 15.432C47.7842 15.4107 47.8268 15.4107 47.8695 15.432C47.9122 15.432 47.9548 15.4213 47.9975 15.4H48.1255C48.2748 15.4 48.4348 15.3787 48.6055 15.336L49.0855 15.208C49.2348 15.1867 49.3735 15.144 49.5015 15.08C49.6295 15.016 49.7468 14.952 49.8535 14.888C49.8748 14.888 49.9388 14.856 50.0455 14.792C50.1522 14.7067 50.2802 14.6213 50.4295 14.536C50.4082 14.472 50.3975 14.3867 50.3975 14.28C50.3975 14.216 50.4295 14.184 50.4935 14.184C50.5575 14.1627 50.6002 14.1307 50.6215 14.088C50.5575 14.0453 50.4722 14.024 50.3655 14.024C50.2802 14.024 50.2482 13.992 50.2695 13.928C50.1842 13.4587 50.0562 13.032 49.8855 12.648C49.7362 12.264 49.5548 11.8373 49.3415 11.368C49.3202 11.304 49.2775 11.1973 49.2135 11.048C49.1495 10.8987 49.1068 10.7813 49.0855 10.696C49.0855 10.6747 49.1068 10.6747 49.1495 10.696C49.1922 10.696 49.2028 10.6853 49.1815 10.664C49.1602 10.5573 49.1388 10.4507 49.1175 10.344C49.1175 10.2373 49.1068 10.1413 49.0855 10.056C49.0642 10.0133 49.0855 9.98133 49.1495 9.96C49.2135 9.93867 49.2348 9.90667 49.2135 9.864C49.1922 9.82133 49.1495 9.81067 49.0855 9.832C49.0215 9.85333 48.9788 9.84267 48.9575 9.8L48.8615 9.416C48.8615 9.30933 48.8402 9.24533 48.7975 9.224C48.7762 9.20267 48.7975 9.16 48.8615 9.096C48.9042 9.07467 48.9255 9.04267 48.9255 9C48.9255 8.936 48.9362 8.89333 48.9575 8.872C49.0642 8.808 49.1068 8.73333 49.0855 8.648C49.0642 8.54133 49.0855 8.44533 49.1495 8.36C49.2135 8.27467 49.2668 8.2 49.3095 8.136C49.3522 8.05067 49.4162 7.99733 49.5015 7.976C49.5655 7.93333 49.5868 7.944 49.5655 8.008C49.5442 8.072 49.5442 8.104 49.5655 8.104C49.6722 8.104 49.7148 8.05067 49.6935 7.944C49.6722 7.83733 49.7042 7.74133 49.7895 7.656C49.9388 7.528 50.1628 7.42133 50.4615 7.336C50.7602 7.25067 50.9842 7.19733 51.1335 7.176C51.1762 7.176 51.2082 7.176 51.2295 7.176C51.2722 7.15467 51.3042 7.144 51.3255 7.144C51.4322 7.144 51.5388 7.15467 51.6455 7.176C51.7735 7.19733 51.8908 7.21867 51.9975 7.24C52.0828 7.26133 52.2108 7.34667 52.3815 7.496C52.5522 7.624 52.6802 7.656 52.7655 7.592C52.9575 7.42133 53.1602 7.272 53.3735 7.144C53.6082 7.016 53.7575 6.96267 53.8215 6.984C53.9922 7.00533 54.1415 7.05867 54.2695 7.144C54.3975 7.208 54.4402 7.42133 54.3975 7.784C54.3762 7.912 54.3228 8.01867 54.2375 8.104C54.1735 8.168 54.1095 8.25333 54.0455 8.36L53.8215 8.68C53.7362 8.82933 53.6295 8.97867 53.5015 9.128C53.3948 9.27733 53.2988 9.37333 53.2135 9.416C53.1282 9.45867 53.0428 9.53333 52.9575 9.64C52.8935 9.72533 52.8082 9.81067 52.7015 9.896C52.5948 9.98133 52.4775 10.0453 52.3495 10.088C52.2428 10.1093 52.1682 10.1307 52.1255 10.152C52.0615 10.1733 51.9655 10.184 51.8375 10.184C51.7308 10.1627 51.6988 10.12 51.7415 10.056C51.7842 10.0347 51.7948 10.0133 51.7735 9.992C51.7522 9.94933 51.7415 9.91733 51.7415 9.896C51.7415 9.85333 51.7628 9.82133 51.8055 9.8C51.8695 9.77867 51.9122 9.74667 51.9335 9.704C51.9548 9.68267 52.0082 9.608 52.0935 9.48C52.2002 9.352 52.2428 9.27733 52.2215 9.256C52.2215 9.192 52.2428 9.13867 52.2855 9.096C52.2855 9.05333 52.2855 9.02133 52.2855 9C52.2855 8.95733 52.3068 8.92533 52.3495 8.904C52.4348 8.88267 52.4775 8.85067 52.4775 8.808V8.424C52.4775 8.33867 52.4668 8.25333 52.4455 8.168C52.4455 8.08267 52.4242 8.008 52.3815 7.944C52.2108 7.73067 51.9335 7.624 51.5495 7.624C51.2722 7.624 51.0055 7.688 50.7495 7.816C50.4722 7.944 50.2375 8.15733 50.0455 8.456C49.8962 8.66933 49.8215 8.89333 49.8215 9.128C49.8215 9.29867 49.8535 9.46933 49.9175 9.64C50.0028 9.81067 50.0775 9.97067 50.1415 10.12C50.2055 10.2693 50.2908 10.4507 50.3975 10.664C50.5255 10.8773 50.6215 11.048 50.6855 11.176C50.7922 11.3467 50.9095 11.5493 51.0375 11.784C51.1655 11.9973 51.2615 12.2 51.3255 12.392C51.3468 12.4133 51.3255 12.4347 51.2615 12.456C51.2188 12.456 51.2082 12.4773 51.2295 12.52C51.2508 12.5627 51.2828 12.584 51.3255 12.584C51.3682 12.584 51.4002 12.6053 51.4215 12.648C51.4642 12.712 51.4642 12.7653 51.4215 12.808C51.4002 12.8507 51.4002 12.9147 51.4215 13C51.4215 13.0213 51.4428 13.0427 51.4855 13.064C51.5282 13.0853 51.5495 13.1067 51.5495 13.128C51.6562 13.4053 51.7095 13.6293 51.7095 13.8C51.9015 13.6933 52.1148 13.5653 52.3495 13.416C52.5842 13.2667 52.7122 13.128 52.7335 13C52.7548 12.9573 52.7868 12.9467 52.8295 12.968C52.8935 12.968 52.9255 12.9893 52.9255 13.032C52.9042 13.1813 52.7228 13.384 52.3815 13.64C52.0615 13.896 51.8162 14.0773 51.6455 14.184C51.6668 14.2053 51.6562 14.2587 51.6135 14.344C51.5708 14.4293 51.5602 14.4933 51.5815 14.536C51.5815 14.5573 51.5708 14.5893 51.5495 14.632C51.5282 14.6533 51.5068 14.6853 51.4855 14.728C51.4855 14.8133 51.4642 14.8773 51.4215 14.92V14.984L51.3255 15.048C51.3042 15.0693 51.2722 15.1227 51.2295 15.208C51.2082 15.272 51.1762 15.3253 51.1335 15.368H51.0375C50.9948 15.4107 50.9735 15.464 50.9735 15.528C50.9308 15.592 50.8348 15.6667 50.6855 15.752C50.5362 15.816 50.4402 15.88 50.3975 15.944C50.3975 15.944 50.3868 15.944 50.3655 15.944C50.3442 15.944 50.3122 15.9653 50.2695 16.008H50.1735C50.1522 16.008 50.1308 16.0293 50.1095 16.072C50.0882 16.0933 50.0668 16.1147 50.0455 16.136C49.9815 16.136 49.9495 16.1573 49.9495 16.2C49.8642 16.2 49.8002 16.2107 49.7575 16.232L49.4375 16.296C49.3522 16.3813 49.2775 16.424 49.2135 16.424L49.1815 16.392C49.1388 16.4347 49.1068 16.456 49.0855 16.456H48.9575C48.9362 16.456 48.9148 16.4667 48.8935 16.488C48.8722 16.5093 48.8508 16.52 48.8295 16.52H48.7655C48.7442 16.52 48.7228 16.52 48.7015 16.52C48.7015 16.5413 48.6802 16.552 48.6375 16.552C48.5735 16.552 48.4775 16.552 48.3495 16.552C48.2428 16.552 48.1575 16.5627 48.0935 16.584ZM47.7735 16.296C47.7735 16.296 47.7948 16.296 47.8375 16.296C47.9015 16.2747 47.9442 16.264 47.9655 16.264C48.0722 16.264 48.1682 16.2747 48.2535 16.296C48.3388 16.296 48.4242 16.296 48.5095 16.296C48.5522 16.296 48.5735 16.2747 48.5735 16.232H48.6375C48.7015 16.168 48.7335 16.1573 48.7335 16.2C48.7548 16.2427 48.7868 16.2427 48.8295 16.2C48.8722 16.2 48.8935 16.1893 48.8935 16.168L49.0215 16.104C49.0428 16.104 49.0535 16.104 49.0535 16.104C49.0535 16.0827 49.0642 16.072 49.0855 16.072H49.1495C49.1922 16.072 49.2348 16.0507 49.2775 16.008C49.3202 15.9653 49.3415 15.944 49.3415 15.944C49.3415 15.944 49.3735 15.912 49.4375 15.848C49.4375 15.848 49.4482 15.848 49.4695 15.848C49.4908 15.8267 49.5122 15.816 49.5335 15.816C49.5762 15.7733 49.6188 15.752 49.6615 15.752C49.6615 15.7307 49.6828 15.7093 49.7255 15.688C49.7682 15.6453 49.7895 15.624 49.7895 15.624C49.8108 15.6027 49.8322 15.592 49.8535 15.592C49.8962 15.5707 49.9175 15.5493 49.9175 15.528C49.9602 15.528 50.0455 15.4533 50.1735 15.304C50.3015 15.1547 50.3868 14.9733 50.4295 14.76C50.4295 14.7173 50.3655 14.7493 50.2375 14.856C50.1095 14.9413 50.0455 14.984 50.0455 14.984C49.9815 15.0053 49.9175 15.048 49.8535 15.112C49.7895 15.1547 49.7362 15.176 49.6935 15.176C49.6722 15.176 49.6402 15.1973 49.5975 15.24C49.5762 15.2613 49.5548 15.272 49.5335 15.272C49.5122 15.272 49.5015 15.2827 49.5015 15.304C49.5015 15.304 49.4802 15.2933 49.4375 15.272C49.4162 15.3147 49.3522 15.3573 49.2455 15.4C49.1388 15.4427 49.0642 15.464 49.0215 15.464H48.9255L48.8935 15.496C48.8935 15.496 48.8828 15.5067 48.8615 15.528C48.8402 15.528 48.8188 15.528 48.7975 15.528L48.5735 15.56H48.5415C48.5202 15.56 48.4988 15.5707 48.4775 15.592C48.3922 15.592 48.2962 15.6027 48.1895 15.624C48.0828 15.6453 48.0188 15.656 47.9975 15.656H47.9655C47.9655 15.6347 47.9548 15.624 47.9335 15.624V15.656H47.7735C47.7095 15.656 47.6348 15.6453 47.5495 15.624C47.4855 15.5813 47.4322 15.56 47.3895 15.56C47.3682 15.56 47.3575 15.5707 47.3575 15.592C47.3575 15.592 47.3468 15.592 47.3255 15.592H47.2615C47.2402 15.592 47.2295 15.5813 47.2295 15.56H47.0695C47.0695 15.496 47.0482 15.4853 47.0055 15.528H46.9735C46.8882 15.528 46.8135 15.496 46.7495 15.432C46.7068 15.368 46.6322 15.336 46.5255 15.336L46.4295 15.24C46.4295 15.2613 46.4188 15.2827 46.3975 15.304C46.3975 15.304 46.3975 15.3147 46.3975 15.336C46.3975 15.336 46.4082 15.3573 46.4295 15.4C46.4722 15.4213 46.4935 15.4427 46.4935 15.464L46.5575 15.592L46.6855 15.752L46.7495 15.816C46.7708 15.8373 46.7815 15.848 46.7815 15.848C46.8028 15.848 46.8242 15.8693 46.8455 15.912C46.8882 15.912 46.9095 15.944 46.9095 16.008C47.2722 16.2 47.5602 16.296 47.7735 16.296Z" fill="#4C4218"/>
</g>
<defs>
<filter id="filter0_d_3_2" x="0" y="0" width="65.4615" height="35.76" filterUnits="userSpaceOnUse" color-interpolation-filters="sRGB">
<feFlood flood-opacity="0" result="BackgroundImageFix"/>
<feColorMatrix in="SourceAlpha" type="matrix" values="0 0 0 0 0 0 0 0 0 0 0 0 0 0 0 0 0 0 127 0" result="hardAlpha"/>
<feOffset dx="2" dy="8"/>
<feGaussianBlur stdDeviation="4.5"/>
<feComposite in2="hardAlpha" operator="out"/>
<feColorMatrix type="matrix" values="0 0 0 0 0 0 0 0 0 0 0 0 0 0 0 0 0 0 0.25 0"/>
<feBlend mode="normal" in2="BackgroundImageFix" result="effect1_dropShadow_3_2"/>
<feBlend mode="normal" in="SourceGraphic" in2="effect1_dropShadow_3_2" result="shape"/>
</filter>
</defs>
</svg>
